<?xml version="1.0" encoding="utf-8"?>
<!-- Generator: Adobe Illustrator 21.0.0, SVG Export Plug-In . SVG Version: 6.00 Build 0)  -->
<svg version="1.1" id="Layer_1" xmlns="http://www.w3.org/2000/svg" xmlns:xlink="http://www.w3.org/1999/xlink" x="0px" y="0px"
	 viewBox="0 0 378 40" style="enable-background:new 0 0 378 40;" xml:space="preserve">
<style type="text/css">
	.st0{fill:#182642;}
	.st1{fill:#FFFFFF;}
	.st2{fill:#009B74;}
	.st3{fill:#287AB9;}
	.st4{fill:#FDB816;}
	.st5{fill:#007457;}
	.st6{fill:#F79C25;}
	.st7{fill:#1E5C8B;}
	.st8{fill:#231F20;}
</style>
<g>
	<g>
		<g>
			<path class="st0" d="M40.7,0.3v39.6h-21C8.9,39.9,0,31,0,20.1C0,9.2,8.9,0.3,19.8,0.3H40.7z"/>
			<path class="st1" d="M24.5,18.2c-0.7-1.9-2.6-3.2-4.7-3.2c-2.8,0-5,2.3-5,5s2.3,5,5,5c2.1,0,3.9-1.3,4.7-3.1l12.8,0
				c-0.9,8.8-8.4,15.6-17.4,15.6V39C9.5,39,0.9,30.4,0.9,20.1S9.5,1.2,19.8,1.2v1.4c9.1,0,16.5,6.9,17.4,15.7L24.5,18.2z"/>
			<path class="st2" d="M19.5,26.3c-1.5-0.1-2.8-0.7-3.9-1.6l-7.8,7.8c3,2.9,7.1,4.7,11.6,4.8V26.3z"/>
			<path class="st3" d="M15.2,24.3c-1-1.1-1.6-2.6-1.6-4.2c0-1.6,0.6-3.1,1.6-4.1L7.4,8.2c-3,3.1-4.8,7.3-4.8,11.9
				c0,4.6,1.8,8.8,4.8,11.9L15.2,24.3z"/>
			<path class="st4" d="M19.5,2.9C15,3,10.9,4.8,7.9,7.8l7.8,7.8c1-0.9,2.4-1.5,3.9-1.6L19.5,2.9z"/>
			<path class="st1" d="M19.5,31.6v1.5c0,0,0,0,0,0L19.5,31.6C19.5,31.6,19.5,31.6,19.5,31.6"/>
			<polyline class="st1" points="19.5,30.3 19.5,30.9 19.5,30.9 19.5,30.3 19.5,30.3 			"/>
			<path class="st1" d="M19.5,3.1l0,1.1c0,0,0,0,0,0L19.5,3.1C19.5,3.1,19.5,3.1,19.5,3.1"/>
			<path class="st1" d="M19.5,4.7l0,1.7c0,0,0,0,0,0L19.5,4.7C19.5,4.7,19.5,4.7,19.5,4.7"/>
			<path class="st5" d="M7.9,32.4L7.9,32.4c0.1,0.2,0.2,0.3,0.3,0.4C8.1,32.6,8,32.5,7.9,32.4"/>
			<g>
				<path class="st6" d="M18.3,3c-1.5,0.1-2.9,0.4-4.2,0.9c0.7-0.1,1.3-0.1,2-0.1c1.2,0,2.3,0.1,3.4,0.4l0-1.1C19.1,3,18.7,3,18.3,3
					"/>
				<path class="st6" d="M16.2,4.2c-1.8,0-3.6,0.4-5.3,1.1C9.9,6,8.8,6.8,7.9,7.8L8,7.9c2.2-1.4,4.8-2.1,7.4-2.1
					c1.4,0,2.8,0.2,4.1,0.6l0-1.7C18.4,4.4,17.3,4.2,16.2,4.2"/>
				<path class="st6" d="M15.3,6.3c-2.5,0-4.9,0.7-6.9,2l1.1,1.1c1.9-1,4-1.5,6.3-1.5c1.3,0,2.6,0.2,3.8,0.5l0-1.5
					C18.2,6.5,16.7,6.3,15.3,6.3"/>
				<path class="st6" d="M15.4,8.5c-1.9,0-3.8,0.4-5.6,1.3l1.2,1.2c1.9-0.9,4-1.4,6-1.4c0.8,0,1.6,0.1,2.4,0.2l0-0.6
					C18.2,8.7,16.8,8.5,15.4,8.5"/>
				<path class="st6" d="M16.7,10.3c-1.8,0-3.6,0.4-5.2,1.1l0.7,0.7c1.7-1,3.6-1.6,5.6-1.8C17.4,10.3,17.1,10.3,16.7,10.3"/>
			</g>
			<g>
				<path class="st5" d="M12.8,27.4l-0.2,0.2c1.6,2.5,4,4.5,6.8,5.5v-1.5C16.9,30.9,14.6,29.4,12.8,27.4"/>
				<path class="st5" d="M16.2,29.3c1,0.7,2.2,1.3,3.3,1.7v-0.6C18.3,30.1,17.2,29.7,16.2,29.3"/>
				<path class="st5" d="M9.3,30.9L8.3,32c1,1.4,2.3,2.6,3.8,3.4c1.5,0.8,3.2,1.3,4.9,1.6C13.8,36,11.1,33.8,9.3,30.9"/>
				<path class="st5" d="M10.9,29.4l-1.2,1.2c2.1,3.7,5.8,6,9.8,6.4v-1.1C16,35,12.8,32.8,10.9,29.4"/>
				<path class="st5" d="M12.1,28.2L11.3,29c1.1,2.1,2.8,3.9,5,5.1c1,0.6,2.1,1,3.2,1.3v-1.7c-1-0.3-1.9-0.7-2.8-1.2
					C14.8,31.3,13.3,29.9,12.1,28.2"/>
			</g>
			<g>
				<path class="st7" d="M7.9,8.6C6.9,9.3,6,10.1,5.2,11c-0.9,1.5-1.6,3.1-2.1,4.9c1.2-2.6,3.3-4.8,5.8-6.2L7.9,8.6z"/>
				<path class="st7" d="M9.3,10c-0.1,0.1-0.2,0.1-0.3,0.2c-3.5,2-5.7,5.4-6.3,9c0,0.3,0,0.6,0,0.9c0,1.6,0.2,3.2,0.7,4.7
					c-0.5-5.3,2-10.6,6.9-13.4c0.1-0.1,0.2-0.1,0.3-0.2L9.3,10z"/>
				<path class="st7" d="M10.9,11.7c-2.2,1.1-4.1,2.8-5.5,5.1c-2.1,3.6-2.2,7.9-0.7,11.5c0.7,1.4,1.7,2.6,2.7,3.7l0.1-0.1
					C4.7,27.6,4.4,22,7.1,17.2c1.2-2,2.8-3.6,4.6-4.8L10.9,11.7z"/>
				<path class="st7" d="M12.3,13c-3.9,2.2-6.5,6.4-6.5,11.3c0,2.7,0.8,5.2,2.2,7.3L9,30.4c-1.1-2-1.7-4.2-1.7-6.6
					c0-4.3,2-8.1,5-10.7L12.3,13z"/>
				<path class="st7" d="M10.3,16.7c-2.7,3.8-3.1,9-0.9,13.4l1.2-1.2C8.5,24.9,8.6,20.5,10.3,16.7"/>
				<path class="st7" d="M9.8,21.8c-0.2,2.3,0.2,4.6,1.2,6.7l0.8-0.8C10.7,25.9,10,23.8,9.8,21.8"/>
			</g>
		</g>
		<g>
			<g>
				<g>
					<path class="st0" d="M65.4,34.4C57,34.4,50.7,28,50.7,20v-0.1c0-8,6.1-14.5,14.9-14.5c5.4,0,8.6,1.8,11.3,4.3l-4,4.5
						c-2.2-2-4.5-3.2-7.3-3.2c-4.8,0-8.3,3.9-8.3,8.7v0.1c0,4.8,3.4,8.8,8.3,8.8c3.3,0,5.3-1.3,7.5-3.3l4,4
						C74.2,32.5,70.9,34.4,65.4,34.4z"/>
				</g>
				<path class="st0" d="M122.5,24.2c3.6-1.3,6.1-4.3,6.1-8.9v-0.1c0-5.9-4-9.4-10.8-9.4h-13.1v28.6h6.3v-9.2h4.9l6.1,9.2h7.4
					L122.5,24.2z M122.2,15.6c0,2.4-1.8,4-4.8,4H111v-8.2h6.3C120.4,11.5,122.2,12.9,122.2,15.6L122.2,15.6z"/>
				<path class="st0" d="M197,24.2c3.6-1.3,6.1-4.3,6.1-8.9v-0.1c0-5.9-4-9.4-10.8-9.4h-13.1v28.6h6.3v-9.2h4.9l6.1,9.2h7.4
					L197,24.2z M196.8,15.6c0,2.4-1.8,4-4.8,4h-6.4v-8.2h6.3C194.9,11.5,196.8,12.9,196.8,15.6L196.8,15.6z"/>
				<path class="st0" d="M95.8,6.2c-1.4-0.5-3-0.8-4.8-0.8h-0.7c-1.8,0-3.4,0.3-4.8,0.8c-4,1.5-6.3,4.8-6.3,9.1v0.1v19h6.5v-9.1h9.8
					v9.1h6.5v-19v-0.1C102,11,99.7,7.6,95.8,6.2z M85.7,19.7l0-4.3c0-2.8,1.9-4.3,5-4.3c3.1,0.1,5,1.6,5,4.3l0,4.3H85.7z"/>
				<polygon class="st0" points="137.3,28.8 137.3,25.2 150.7,25.2 150.7,19.6 137.3,19.6 137.3,11.4 152.8,11.4 152.8,5.8 131,5.8 
					131,34.4 152.8,34.4 152.8,28.8 				"/>
				<polygon class="st0" points="161.4,28.8 161.4,25.2 174.9,25.2 174.9,19.6 161.4,19.6 161.4,11.4 177,11.4 177,5.8 155.2,5.8 
					155.2,34.4 177,34.4 177,28.8 				"/>
			</g>
			<g>
				<path class="st0" d="M223.1,19.7c2.3-0.9,4.8-2.9,4.8-6.8v-0.1c0-4.3-3.7-7-9.3-7h-11.8v28.5h12.4c6.2,0,10.2-3,10.2-7.8v-0.1
					C229.5,22.5,226.5,20.6,223.1,19.7z M209,7.8h9.6c4.6,0,7.1,2.1,7.1,5.3v0.1c0,3.8-3.1,5.8-7.3,5.8H209V7.8z M227.4,26.6
					c0,3.6-3.1,5.8-8,5.8H209V20.9h9.7C224.3,20.9,227.4,23,227.4,26.6L227.4,26.6z"/>
				<g>
					<path class="st0" d="M244.5,34.8c-6.8,0-11.7-4.3-11.7-12.3V5.8h2.1v16.5c0,6.7,3.6,10.6,9.7,10.6c5.8,0,9.5-3.5,9.5-10.4V5.8
						h2.1v16.4C256.2,30.4,251.5,34.8,244.5,34.8z"/>
				</g>
				<g>
					<rect x="262.5" y="5.8" class="st0" width="2.1" height="28.5"/>
				</g>
				<g>
					<polygon class="st0" points="270.9,34.3 270.9,5.8 273,5.8 273,32.4 289.8,32.4 289.8,34.3 					"/>
				</g>
				<path class="st0" d="M302.6,5.8h-9.5v28.5h9.5c9,0,15.2-6.2,15.2-14.3V20C317.7,12,311.5,5.8,302.6,5.8z M315.5,20.2
					c0,6.8-5,12.2-13,12.2h-7.4V7.8h7.4C310.5,7.8,315.5,13.3,315.5,20.2L315.5,20.2z"/>
				<g>
					<polygon class="st0" points="321.1,34.3 321.1,5.8 341.4,5.8 341.4,7.8 323.2,7.8 323.2,18.9 339.5,18.9 339.5,20.9 
						323.2,20.9 323.2,32.4 341.6,32.4 341.6,34.3 					"/>
				</g>
				<path class="st0" d="M358.3,20.9c3.9-0.3,7.7-2,7.6-7.9c-0.1-5.2-3.7-7.2-9.3-7.2h-11.8v28.5h2.1l0,0v-1.9V20.9c0,0,7.5,0,8.1,0
					l0.6,0l9.7,13.5l2.7,0L358.3,20.9z M347,18.9V7.7h9.6c4.6,0,7,1.7,7.1,5.3c0.2,4.5-2.6,5.9-7.3,5.9
					C353.1,18.9,347,18.9,347,18.9z"/>
			</g>
		</g>
	</g>
	<line class="st8" x1="367.6" y1="8.3" x2="367.6" y2="8.4"/>
	<path class="st0" d="M372.1,10.2c-2.7,0-4.9-2.2-4.9-4.9s2.2-4.9,4.9-4.9s4.9,2.2,4.9,4.9S374.8,10.2,372.1,10.2z M372.1,1.2
		c-2.3,0-4.1,1.8-4.1,4.1s1.8,4.1,4.1,4.1s4.1-1.8,4.1-4.1S374.4,1.2,372.1,1.2z"/>
	<g>
		<path class="st0" d="M370.4,3h2.1c0.3,0,0.6,0,0.8,0.1c0.2,0.1,0.4,0.2,0.6,0.4c0.1,0.1,0.2,0.3,0.3,0.4c0.1,0.2,0.1,0.3,0.1,0.5
			v0c0,0.2,0,0.4-0.1,0.5s-0.2,0.3-0.3,0.4c-0.1,0.1-0.3,0.2-0.4,0.3c-0.2,0.1-0.3,0.1-0.5,0.2l1.5,2h-0.7L372.4,6h0H371v1.9h-0.6V3
			z M372.5,5.5c0.2,0,0.4,0,0.5-0.1c0.2,0,0.3-0.1,0.4-0.2c0.1-0.1,0.2-0.2,0.3-0.3c0.1-0.1,0.1-0.3,0.1-0.4v0
			c0-0.3-0.1-0.5-0.3-0.7c-0.2-0.2-0.5-0.3-0.9-0.3H371v2H372.5z"/>
	</g>
</g>
</svg>
