<svg id="Layer_1" data-name="Layer 1" xmlns="http://www.w3.org/2000/svg" viewBox="0 0 385.65 81.36"><defs><style>.cls-1{fill:#aaa;}.cls-11,.cls-2{fill:none;}.cls-2{stroke:#182642;stroke-miterlimit:10;stroke-width:2px;}.cls-3{fill:#182642;}.cls-4{fill:#fff;}.cls-5{fill:#009b74;}.cls-6{fill:#287ab9;}.cls-7{fill:#fdb816;}.cls-8{fill:#007457;}.cls-9{fill:#f79c25;}.cls-10{fill:#1e5c8b;}</style></defs><title>EmploymentScrn_FullColor_Horizontal_WEB_LGO_FA</title><path class="cls-1" d="M128.29,311.05H140.6v2.63h-9.41V318h8.34v2.64h-8.34v4.45h9.53v2.63H128.29Z" transform="translate(-75.93 -246.61)"/><path class="cls-1" d="M144.69,311.05h3.11l5.07,7.86,5.06-7.86H161v16.63h-2.9V315.75l-5.25,7.84h-.1l-5.2-7.79v11.88h-2.9Z" transform="translate(-75.93 -246.61)"/><path class="cls-1" d="M165.79,311.05h6.56a8.31,8.31,0,0,1,2.63.39,5.58,5.58,0,0,1,2,1.13,5.07,5.07,0,0,1,1.26,1.76,5.76,5.76,0,0,1,.44,2.28v.05a5.42,5.42,0,0,1-.53,2.45,5.08,5.08,0,0,1-1.43,1.78A6.53,6.53,0,0,1,174.6,322a9.06,9.06,0,0,1-2.59.37h-3.32v5.34h-2.9Zm6.31,8.65a3.87,3.87,0,0,0,2.64-.84,2.73,2.73,0,0,0,1-2.15v0a2.64,2.64,0,0,0-1-2.23,4.15,4.15,0,0,0-2.63-.76h-3.41v6Z" transform="translate(-75.93 -246.61)"/><path class="cls-1" d="M182.15,311.05h2.9v14h8.74v2.63H182.15Z" transform="translate(-75.93 -246.61)"/><path class="cls-1" d="M205.27,328a9,9,0,0,1-3.52-.68,8.27,8.27,0,0,1-4.51-4.56,8.58,8.58,0,0,1-.64-3.32v-.05a8.56,8.56,0,0,1,.64-3.31,8.43,8.43,0,0,1,1.8-2.73,8.67,8.67,0,0,1,6.28-2.56,9,9,0,0,1,3.52.68,8.27,8.27,0,0,1,2.73,1.84,8.58,8.58,0,0,1,2.42,6v0a8.58,8.58,0,0,1-.64,3.32,8.43,8.43,0,0,1-1.8,2.73,8.67,8.67,0,0,1-6.28,2.56Zm0-2.69a5.44,5.44,0,0,0,2.26-.46,5.34,5.34,0,0,0,1.76-1.26,5.82,5.82,0,0,0,1.15-1.87,6.15,6.15,0,0,0,.41-2.28v-.05a6.28,6.28,0,0,0-.41-2.29,5.72,5.72,0,0,0-1.16-1.88,5.65,5.65,0,0,0-1.79-1.27,5.33,5.33,0,0,0-2.27-.47,5.36,5.36,0,0,0-4,1.72A5.82,5.82,0,0,0,200.1,317a6.15,6.15,0,0,0-.41,2.28v0a6.3,6.3,0,0,0,.41,2.3,5.72,5.72,0,0,0,1.16,1.88,5.65,5.65,0,0,0,1.79,1.27A5.49,5.49,0,0,0,205.32,325.28Z" transform="translate(-75.93 -246.61)"/><path class="cls-1" d="M222.91,321.12l-6.61-10.07h3.45l4.65,7.36,4.71-7.36h3.35l-6.61,10v6.63h-2.94Z" transform="translate(-75.93 -246.61)"/><path class="cls-1" d="M235.5,311.05h3.12l5.06,7.86,5.06-7.86h3.11v16.63H249V315.75l-5.25,7.84h-.09l-5.21-7.79v11.88h-2.9Z" transform="translate(-75.93 -246.61)"/><path class="cls-1" d="M256.61,311.05h12.31v2.63h-9.41V318h8.34v2.64h-8.34v4.45H269v2.63H256.61Z" transform="translate(-75.93 -246.61)"/><path class="cls-1" d="M273,311.05h2.7l8.89,11.5v-11.5h2.9v16.63h-2.44l-9.15-11.83v11.83H273Z" transform="translate(-75.93 -246.61)"/><path class="cls-1" d="M296.34,313.76h-5.27v-2.71h13.5v2.71h-5.28v13.92h-3Z" transform="translate(-75.93 -246.61)"/><path class="cls-1" d="M321.58,327.92a10.6,10.6,0,0,1-3.68-.65,10.26,10.26,0,0,1-3.26-2l1.76-2.09a10.47,10.47,0,0,0,2.45,1.6,6.78,6.78,0,0,0,2.81.56,3.63,3.63,0,0,0,2.15-.57,1.78,1.78,0,0,0,.79-1.52v-.05a2,2,0,0,0-.15-.8,2,2,0,0,0-.57-.65,4.55,4.55,0,0,0-1.15-.57,15.91,15.91,0,0,0-1.89-.52,19.42,19.42,0,0,1-2.37-.7,6.51,6.51,0,0,1-1.74-.95,3.65,3.65,0,0,1-1.07-1.37,4.62,4.62,0,0,1-.37-1.95v-.05a4.57,4.57,0,0,1,.42-2,4.46,4.46,0,0,1,1.17-1.52,5.28,5.28,0,0,1,1.78-1,7,7,0,0,1,2.28-.36,9.66,9.66,0,0,1,3.29.53A9.93,9.93,0,0,1,327,312.9l-1.57,2.21a10.13,10.13,0,0,0-2.26-1.27,6.14,6.14,0,0,0-2.26-.44,3.1,3.1,0,0,0-2,.57,1.72,1.72,0,0,0-.71,1.4v.05a2,2,0,0,0,.16.84,1.66,1.66,0,0,0,.61.67,5.32,5.32,0,0,0,1.21.56c.52.17,1.18.35,2,.54a20,20,0,0,1,2.32.74,5.65,5.65,0,0,1,1.68,1,3.81,3.81,0,0,1,1,1.35,4.38,4.38,0,0,1,.34,1.8v0a4.9,4.9,0,0,1-.43,2.1,4.44,4.44,0,0,1-1.22,1.56,5.29,5.29,0,0,1-1.87,1A8.24,8.24,0,0,1,321.58,327.92Z" transform="translate(-75.93 -246.61)"/><path class="cls-1" d="M339.17,328a8.31,8.31,0,0,1-3.37-.67,8.33,8.33,0,0,1-4.47-4.54,8.69,8.69,0,0,1-.64-3.35v-.05a8.61,8.61,0,0,1,2.41-6.07,8.57,8.57,0,0,1,2.72-1.85,8.7,8.7,0,0,1,3.47-.68,10.3,10.3,0,0,1,2.08.19,8.46,8.46,0,0,1,1.72.54,7.56,7.56,0,0,1,1.45.82,9.67,9.67,0,0,1,1.26,1l-1.87,2.16a9.84,9.84,0,0,0-2.12-1.49,5.49,5.49,0,0,0-2.54-.57,5.16,5.16,0,0,0-2.2.46,5.52,5.52,0,0,0-1.75,1.26,5.63,5.63,0,0,0-1.14,1.87,6.36,6.36,0,0,0-.4,2.28v0a6.51,6.51,0,0,0,.4,2.3,5.82,5.82,0,0,0,1.14,1.89,5.39,5.39,0,0,0,1.75,1.27,5.16,5.16,0,0,0,2.2.46,5.47,5.47,0,0,0,2.61-.58,10.07,10.07,0,0,0,2.16-1.58l1.88,1.9a11,11,0,0,1-1.34,1.23,9.22,9.22,0,0,1-1.51.92,8,8,0,0,1-1.77.6A10.71,10.71,0,0,1,339.17,328Z" transform="translate(-75.93 -246.61)"/><path class="cls-1" d="M349.44,311.05h7.42a8,8,0,0,1,2.78.44,5.66,5.66,0,0,1,2,1.22,4.92,4.92,0,0,1,1,1.59,5.35,5.35,0,0,1,.35,2v.05a5.34,5.34,0,0,1-.29,1.84,4.91,4.91,0,0,1-.82,1.45,5.17,5.17,0,0,1-1.25,1.07,6,6,0,0,1-1.6.67l4.49,6.3h-3.45l-4.1-5.8h-3.67v5.8h-2.9Zm7.19,8.24a3.86,3.86,0,0,0,2.5-.75,2.48,2.48,0,0,0,.93-2v-.05a2.46,2.46,0,0,0-.9-2.06,4.09,4.09,0,0,0-2.55-.71h-4.27v5.61Z" transform="translate(-75.93 -246.61)"/><path class="cls-1" d="M367.1,311.05h12.31v2.63H370V318h8.34v2.64H370v4.45h9.53v2.63H367.1Z" transform="translate(-75.93 -246.61)"/><path class="cls-1" d="M383.5,311.05h12.31v2.63H386.4V318h8.34v2.64H386.4v4.45h9.53v2.63H383.5Z" transform="translate(-75.93 -246.61)"/><path class="cls-1" d="M399.9,311.05h2.7l8.9,11.5v-11.5h2.89v16.63H412l-9.15-11.83v11.83h-2.9Z" transform="translate(-75.93 -246.61)"/><path class="cls-1" d="M419.31,311.05h2.9v16.63h-2.9Z" transform="translate(-75.93 -246.61)"/><path class="cls-1" d="M427.16,311.05h2.7l8.89,11.5v-11.5h2.9v16.63h-2.44l-9.15-11.83v11.83h-2.9Z" transform="translate(-75.93 -246.61)"/><path class="cls-1" d="M454.3,328a9.15,9.15,0,0,1-3.54-.66,7.91,7.91,0,0,1-4.47-4.51,9.16,9.16,0,0,1-.62-3.39v-.05a8.62,8.62,0,0,1,.64-3.3,8.16,8.16,0,0,1,1.78-2.74,8.34,8.34,0,0,1,2.73-1.87,8.5,8.5,0,0,1,3.45-.69,11,11,0,0,1,2,.16,9.94,9.94,0,0,1,1.65.43,8.76,8.76,0,0,1,1.44.71,9.6,9.6,0,0,1,1.32,1l-1.86,2.21a9.57,9.57,0,0,0-1-.74,5.93,5.93,0,0,0-2.25-.91,7,7,0,0,0-1.43-.13,4.92,4.92,0,0,0-2.13.47,5.56,5.56,0,0,0-1.71,1.28,5.63,5.63,0,0,0-1.14,1.87,6.09,6.09,0,0,0-.42,2.26v.05a6.83,6.83,0,0,0,.4,2.38,5.33,5.33,0,0,0,2.93,3.12,5.73,5.73,0,0,0,2.31.45,7,7,0,0,0,2.22-.35,6,6,0,0,0,1.79-.92v-3.13h-4.25v-2.54h7.08v7a12.41,12.41,0,0,1-1.37,1,11.2,11.2,0,0,1-1.62.83,10.35,10.35,0,0,1-1.86.56A10.9,10.9,0,0,1,454.3,328Z" transform="translate(-75.93 -246.61)"/><line class="cls-2" x1="52.15" y1="49.69" x2="385.26" y2="49.69"/><path class="cls-3" d="M118.12,246.61v41H96.43a20.5,20.5,0,0,1,0-41Z" transform="translate(-75.93 -246.61)"/><path class="cls-4" d="M101.27,265.18a5.19,5.19,0,1,0,0,3.9h13.24a18.18,18.18,0,0,1-18.08,16.19v1.44a19.6,19.6,0,0,1,0-39.2V249a18.21,18.21,0,0,1,18.08,16.23Z" transform="translate(-75.93 -246.61)"/><path class="cls-5" d="M96.1,273.51a6.39,6.39,0,0,1-4-1.69l-8,8a17.69,17.69,0,0,0,12,5V273.51Z" transform="translate(-75.93 -246.61)"/><path class="cls-6" d="M91.67,271.41a6.41,6.41,0,0,1,0-8.61l-8-8a17.75,17.75,0,0,0,0,24.68Z" transform="translate(-75.93 -246.61)"/><path class="cls-7" d="M96.1,249.32a17.65,17.65,0,0,0-12,5l8,8a6.4,6.4,0,0,1,4-1.68Z" transform="translate(-75.93 -246.61)"/><path class="cls-4" d="M96.1,279v1.52h0V279h0" transform="translate(-75.93 -246.61)"/><path class="cls-4" d="M96.1,277.65v.65h0v-.65h0" transform="translate(-75.93 -246.61)"/><path class="cls-4" d="M96.1,249.48v1.15h0v-1.15h0" transform="translate(-75.93 -246.61)"/><path class="cls-4" d="M96.1,251.12v1.8h0v-1.8h0" transform="translate(-75.93 -246.61)"/><path class="cls-8" d="M84.13,279.82l0,0a2.25,2.25,0,0,0,.37.33,2.2,2.2,0,0,1-.33-.37" transform="translate(-75.93 -246.61)"/><path class="cls-9" d="M94.87,249.4a16.77,16.77,0,0,0-4.35.94,18.55,18.55,0,0,1,2.09-.16,14.47,14.47,0,0,1,3.53.45v-1.15c-.45,0-.86-.08-1.27-.08" transform="translate(-75.93 -246.61)"/><path class="cls-9" d="M92.74,250.67a13.85,13.85,0,0,0-5.46,1.15,17,17,0,0,0-3.23,2.5l.12.12a14.53,14.53,0,0,1,7.67-2.21,13.81,13.81,0,0,1,4.26.65v-1.8a15.14,15.14,0,0,0-3.36-.41" transform="translate(-75.93 -246.61)"/><path class="cls-9" d="M91.71,252.76a13.48,13.48,0,0,0-7.17,2.09L85.69,256a14.14,14.14,0,0,1,6.47-1.56,15.49,15.49,0,0,1,3.9.53v-1.51a13.45,13.45,0,0,0-4.35-.7" transform="translate(-75.93 -246.61)"/><path class="cls-9" d="M91.88,255.06a13.09,13.09,0,0,0-5.78,1.31l1.23,1.23a14.06,14.06,0,0,1,6.27-1.44,15.81,15.81,0,0,1,2.5.21v-.66a14.64,14.64,0,0,0-4.22-.65" transform="translate(-75.93 -246.61)"/><path class="cls-9" d="M93.23,257a13.06,13.06,0,0,0-5.41,1.15l.74.74A14.28,14.28,0,0,1,94.34,257a10.29,10.29,0,0,0-1.11,0" transform="translate(-75.93 -246.61)"/><path class="cls-8" d="M89.21,274.69l-.16.17a13.46,13.46,0,0,0,7,5.66V279a13.88,13.88,0,0,1-6.89-4.31" transform="translate(-75.93 -246.61)"/><path class="cls-8" d="M92.66,276.58a14,14,0,0,0,3.44,1.72v-.65a13.08,13.08,0,0,1-3.44-1.07" transform="translate(-75.93 -246.61)"/><path class="cls-8" d="M85.6,278.34l-1.1,1.11A13.51,13.51,0,0,0,88.43,283a18.06,18.06,0,0,0,5.09,1.64,14.64,14.64,0,0,1-7.92-6.32" transform="translate(-75.93 -246.61)"/><path class="cls-8" d="M87.2,276.74,86,278a13.53,13.53,0,0,0,10.17,6.65v-1.15a14.37,14.37,0,0,1-8.94-6.73" transform="translate(-75.93 -246.61)"/><path class="cls-8" d="M88.47,275.47l-.82.82a13.42,13.42,0,0,0,5.13,5.29,12.7,12.7,0,0,0,3.32,1.36v-1.81a16.9,16.9,0,0,1-2.91-1.27,14.21,14.21,0,0,1-4.72-4.39" transform="translate(-75.93 -246.61)"/><path class="cls-10" d="M84.05,255.18a13.16,13.16,0,0,0-2.71,2.5,18.25,18.25,0,0,0-2.17,5.08,14.31,14.31,0,0,1,6-6.47Z" transform="translate(-75.93 -246.61)"/><path class="cls-10" d="M85.52,256.65c-.12.09-.24.13-.37.21a13.41,13.41,0,0,0-6.52,9.31c0,.28,0,.61,0,.9a17.89,17.89,0,0,0,.7,4.92,14.42,14.42,0,0,1,7.09-13.9,3.7,3.7,0,0,0,.33-.21Z" transform="translate(-75.93 -246.61)"/><path class="cls-10" d="M87.24,258.38a13.5,13.5,0,0,0-6.43,17.22,18.73,18.73,0,0,0,2.83,3.85l.12-.12A14.4,14.4,0,0,1,88,259.2Z" transform="translate(-75.93 -246.61)"/><path class="cls-10" d="M88.6,259.73a13.44,13.44,0,0,0-4.47,19.19l1.15-1.15a14.39,14.39,0,0,1,3.48-17.92Z" transform="translate(-75.93 -246.61)"/><path class="cls-10" d="M86.55,263.58a13.55,13.55,0,0,0-.91,13.86l1.23-1.23a14.53,14.53,0,0,1-.32-12.63" transform="translate(-75.93 -246.61)"/><path class="cls-10" d="M86.1,268.83a13.17,13.17,0,0,0,1.27,6.89l.78-.78a14.13,14.13,0,0,1-2.05-6.11" transform="translate(-75.93 -246.61)"/><path class="cls-3" d="M143.66,281.91a14.82,14.82,0,0,1-15.21-15v-.09c0-8.28,6.35-15,15.46-15,5.57,0,8.93,1.84,11.68,4.47L151.45,261c-2.3-2.05-4.63-3.28-7.58-3.28-5,0-8.62,4.06-8.62,9.06v.08c0,5,3.53,9.15,8.62,9.15,3.4,0,5.45-1.32,7.79-3.41l4.14,4.1A15.09,15.09,0,0,1,143.66,281.91Z" transform="translate(-75.93 -246.61)"/><path class="cls-3" d="M202.78,271.33a9.18,9.18,0,0,0,6.36-9.18v-.08c0-6.11-4.18-9.8-11.2-9.8H184.37v29.64h6.56v-9.47h5.13l6.35,9.47H210Zm-.24-8.85c0,2.5-1.81,4.18-5,4.18h-6.6v-8.49h6.48c3.16,0,5.13,1.44,5.13,4.22Z" transform="translate(-75.93 -246.61)"/><path class="cls-3" d="M280,271.33a9.17,9.17,0,0,0,6.35-9.18v-.08c0-6.11-4.18-9.8-11.19-9.8H261.62v29.64h6.52v-9.47h5.12l6.36,9.47h7.67Zm-.25-8.85c0,2.5-1.8,4.18-5,4.18h-6.6v-8.49h6.48c3.15,0,5.12,1.44,5.12,4.22Z" transform="translate(-75.93 -246.61)"/><path class="cls-3" d="M175.11,252.68a13.94,13.94,0,0,0-4.92-.82h-.78a13.86,13.86,0,0,0-4.92.82,9.59,9.59,0,0,0-6.48,9.47v19.76h6.68v-9.39H174.9v9.39h6.69V262.15A9.56,9.56,0,0,0,175.11,252.68Zm-10.46,14v-4.47c0-2.87,2-4.39,5.17-4.47s5.12,1.6,5.16,4.47v4.47Z" transform="translate(-75.93 -246.61)"/><polygon class="cls-3" points="142.19 29.52 142.19 25.79 156.13 25.79 156.13 20.01 142.19 20.01 142.19 11.48 158.3 11.48 158.3 5.66 135.71 5.66 135.71 35.3 158.3 35.3 158.3 29.52 142.19 29.52"/><polygon class="cls-3" points="167.2 29.52 167.2 25.79 181.14 25.79 181.14 20.01 167.2 20.01 167.2 11.48 183.31 11.48 183.31 5.66 160.72 5.66 160.72 35.3 183.31 35.3 183.31 29.52 167.2 29.52"/><path class="cls-3" d="M307,266.66c2.42-1,5-3,5-7v-.08c0-4.43-3.85-7.26-9.59-7.26H290.24v29.56h12.83c6.36,0,10.58-3.12,10.58-8.08v-.08C313.65,269.61,310.53,267.6,307,266.66Zm-14.56-12.3h10c4.72,0,7.38,2.21,7.38,5.45v.08c0,3.94-3.15,6-7.58,6h-9.76Zm19,19.43c0,3.73-3.19,6-8.28,6h-10.7V267.93h10c5.82,0,9,2.17,9,5.78Z" transform="translate(-75.93 -246.61)"/><path class="cls-3" d="M329.23,282.32c-7.09,0-12.1-4.47-12.1-12.75V252.31h2.22v17.05c0,7,3.77,11,10,11,6,0,9.84-3.65,9.84-10.78V252.31h2.22v17C341.32,277.81,336.4,282.32,329.23,282.32Z" transform="translate(-75.93 -246.61)"/><rect class="cls-3" x="271.92" y="5.7" width="2.21" height="29.56"/><polygon class="cls-3" points="280.61 35.26 280.61 5.7 282.82 5.7 282.82 33.25 300.17 33.25 300.17 35.26 280.61 35.26"/><path class="cls-3" d="M389.34,252.31H379.5v29.56h9.84c9.26,0,15.7-6.48,15.7-14.76V267C405,258.7,398.64,252.31,389.34,252.31Zm13.4,14.88c0,7.05-5.2,12.67-13.4,12.67h-7.63v-25.5h7.63c8.24,0,13.4,5.74,13.4,12.75Z" transform="translate(-75.93 -246.61)"/><polygon class="cls-3" points="332.6 35.26 332.6 5.7 353.63 5.7 353.63 7.75 334.77 7.75 334.77 19.31 351.7 19.31 351.7 21.32 334.77 21.32 334.77 33.25 353.83 33.25 353.83 35.26 332.6 35.26"/><path class="cls-3" d="M447,267.93c4-.29,8-2.05,7.92-8.16-.09-5.33-3.9-7.5-9.64-7.5H433.08v29.56h2.22v-13.9h9l10.08,13.94h2.79Zm-11.68-2v-11.6h10c4.72,0,7.26,1.76,7.38,5.45.17,4.72-2.66,6.15-7.58,6.15Z" transform="translate(-75.93 -246.61)"/><line class="cls-11" x1="380.2" y1="9.92" x2="380.2" y2="9.92"/><path class="cls-3" d="M458.75,257.6a2.83,2.83,0,1,1,2.83-2.83A2.83,2.83,0,0,1,458.75,257.6Zm0-5.17a2.38,2.38,0,1,0,2.38,2.38A2.41,2.41,0,0,0,458.75,252.43Z" transform="translate(-75.93 -246.61)"/><path class="cls-3" d="M457.72,253.42H459a1.58,1.58,0,0,1,.46.08.87.87,0,0,1,.32.2.74.74,0,0,1,.17.25.81.81,0,0,1,0,.33h0a.88.88,0,0,1,0,.32.66.66,0,0,1-.17.25.84.84,0,0,1-.24.16.65.65,0,0,1-.29.09l.86,1.14h-.41l-.82-1.1h-.78v1.1h-.33v-2.82Zm1.19,1.43a.62.62,0,0,0,.29,0l.25-.12c.08,0,.12-.13.16-.17a.51.51,0,0,0,0-.24h0a.5.5,0,0,0-.2-.41.89.89,0,0,0-.54-.17h-.86v1.15Z" transform="translate(-75.93 -246.61)"/></svg>