<svg id="Layer_1" data-name="Layer 1" xmlns="http://www.w3.org/2000/svg" viewBox="0 0 191.65 123.91"><defs><style>.cls-1,.cls-11{fill:none;}.cls-1{stroke:#182642;stroke-miterlimit:10;stroke-width:2px;}.cls-2{fill:#aaa;}.cls-3{fill:#182642;}.cls-4{fill:#fff;}.cls-5{fill:#009b74;}.cls-6{fill:#287ab9;}.cls-7{fill:#fdb816;}.cls-8{fill:#007457;}.cls-9{fill:#f79c25;}.cls-10{fill:#1e5c8b;}</style></defs><title>EmploymentScrn_FullColor_Stacked_WEB_LGO_FA</title><line class="cls-1" x1="8.7" y1="69.87" x2="187.9" y2="69.87"/><path class="cls-2" d="M216.17,313.41h10.1v2.16h-7.72v3.51h6.85v2.17h-6.85v3.64h7.82v2.17h-10.2Z" transform="translate(-189.7 -226.79)"/><path class="cls-2" d="M229.63,313.41h2.55l4.15,6.45,4.16-6.45H243v13.65h-2.38v-9.79l-4.31,6.44h-.07l-4.27-6.4v9.75h-2.38Z" transform="translate(-189.7 -226.79)"/><path class="cls-2" d="M246.94,313.41h5.38a6.91,6.91,0,0,1,2.16.32,4.62,4.62,0,0,1,1.64.93,4,4,0,0,1,1,1.44,4.69,4.69,0,0,1,.36,1.87v0a4.45,4.45,0,0,1-.43,2,4.26,4.26,0,0,1-1.17,1.45,5.3,5.3,0,0,1-1.74.89,7.41,7.41,0,0,1-2.13.3h-2.72v4.39h-2.38Zm5.18,7.1a3.18,3.18,0,0,0,2.16-.69,2.21,2.21,0,0,0,.79-1.76v0a2.15,2.15,0,0,0-.8-1.83,3.43,3.43,0,0,0-2.15-.62h-2.8v4.94Z" transform="translate(-189.7 -226.79)"/><path class="cls-2" d="M260.36,313.41h2.38v11.48h7.17v2.17h-9.55Z" transform="translate(-189.7 -226.79)"/><path class="cls-2" d="M279.33,327.29a7.28,7.28,0,0,1-2.88-.55,7,7,0,0,1-2.25-1.51,7.11,7.11,0,0,1-2-5v0a7.13,7.13,0,0,1,.53-2.72,6.94,6.94,0,0,1,1.48-2.24,7.28,7.28,0,0,1,2.26-1.53,7.2,7.2,0,0,1,2.89-.57,7.34,7.34,0,0,1,2.89.56,6.86,6.86,0,0,1,2.24,1.51,7,7,0,0,1,1.46,2.23,7.13,7.13,0,0,1,.53,2.72v0A7.05,7.05,0,0,1,286,323a6.83,6.83,0,0,1-1.48,2.25,7.07,7.07,0,0,1-5.15,2.09Zm0-2.2a4.5,4.5,0,0,0,1.85-.38,4.35,4.35,0,0,0,1.45-1,4.72,4.72,0,0,0,.94-1.54,5,5,0,0,0,.34-1.87v0a5.14,5.14,0,0,0-.34-1.88,4.58,4.58,0,0,0-.95-1.54,4.67,4.67,0,0,0-1.46-1,4.69,4.69,0,0,0-3.72,0,4.35,4.35,0,0,0-1.45,1,5,5,0,0,0-.94,1.53,5.09,5.09,0,0,0-.34,1.87v0a5.19,5.19,0,0,0,.34,1.89,4.52,4.52,0,0,0,2.42,2.58A4.43,4.43,0,0,0,279.37,325.09Z" transform="translate(-189.7 -226.79)"/><path class="cls-2" d="M293.8,321.68l-5.42-8.27h2.83l3.82,6,3.86-6h2.75l-5.42,8.21v5.44H293.8Z" transform="translate(-189.7 -226.79)"/><path class="cls-2" d="M304.13,313.41h2.56l4.15,6.45,4.16-6.45h2.55v13.65h-2.38v-9.79l-4.31,6.44h-.08l-4.27-6.4v9.75h-2.38Z" transform="translate(-189.7 -226.79)"/><path class="cls-2" d="M321.45,313.41h10.1v2.16h-7.72v3.51h6.84v2.17h-6.84v3.64h7.82v2.17h-10.2Z" transform="translate(-189.7 -226.79)"/><path class="cls-2" d="M334.91,313.41h2.21l7.3,9.44v-9.44h2.38v13.65h-2l-7.51-9.71v9.71h-2.38Z" transform="translate(-189.7 -226.79)"/><path class="cls-2" d="M354.05,315.63h-4.32v-2.22H360.8v2.22h-4.33v11.43h-2.42Z" transform="translate(-189.7 -226.79)"/><path class="cls-2" d="M233.3,350.65a8.77,8.77,0,0,1-3-.53,8.35,8.35,0,0,1-2.67-1.65l1.44-1.72a8.18,8.18,0,0,0,2,1.32,5.46,5.46,0,0,0,2.3.46,3,3,0,0,0,1.77-.47,1.47,1.47,0,0,0,.65-1.25v0a1.51,1.51,0,0,0-.13-.65,1.37,1.37,0,0,0-.47-.54,3.57,3.57,0,0,0-.94-.46,11.15,11.15,0,0,0-1.55-.43,14.73,14.73,0,0,1-1.95-.58,5,5,0,0,1-1.42-.78,2.91,2.91,0,0,1-.88-1.12,3.87,3.87,0,0,1-.31-1.6v0a3.76,3.76,0,0,1,.35-1.61,3.64,3.64,0,0,1,1-1.24,4.26,4.26,0,0,1,1.47-.81,5.6,5.6,0,0,1,1.87-.3,7.52,7.52,0,0,1,4.95,1.72l-1.29,1.81a8.45,8.45,0,0,0-1.85-1,5,5,0,0,0-1.85-.36,2.52,2.52,0,0,0-1.64.47,1.42,1.42,0,0,0-.59,1.15v0a1.67,1.67,0,0,0,.14.69,1.33,1.33,0,0,0,.5.54,3.76,3.76,0,0,0,1,.46c.42.15,1,.29,1.61.45a13.31,13.31,0,0,1,1.9.61A4.57,4.57,0,0,1,237,344a2.9,2.9,0,0,1,.83,1.11,3.54,3.54,0,0,1,.29,1.47v0a3.9,3.9,0,0,1-.36,1.71,3.62,3.62,0,0,1-1,1.29,4.28,4.28,0,0,1-1.53.8A6.8,6.8,0,0,1,233.3,350.65Z" transform="translate(-189.7 -226.79)"/><path class="cls-2" d="M247.73,350.69a7,7,0,0,1-2.77-.54,6.88,6.88,0,0,1-2.2-1.5,7,7,0,0,1-1.46-2.23,7.2,7.2,0,0,1-.53-2.75v0a7.18,7.18,0,0,1,.52-2.74,7.05,7.05,0,0,1,1.46-2.24,7,7,0,0,1,2.23-1.52,7.14,7.14,0,0,1,2.85-.56,9,9,0,0,1,1.71.16,6.64,6.64,0,0,1,1.41.44,6.54,6.54,0,0,1,1.19.67,9.39,9.39,0,0,1,1,.86l-1.54,1.77a7.67,7.67,0,0,0-1.73-1.22,4.44,4.44,0,0,0-2.09-.47,4.15,4.15,0,0,0-1.8.38,4.51,4.51,0,0,0-1.44,1,4.76,4.76,0,0,0-.93,1.53,5.29,5.29,0,0,0-.33,1.87v0a5.31,5.31,0,0,0,.33,1.88,4.79,4.79,0,0,0,.93,1.56,4.54,4.54,0,0,0,1.44,1,4.3,4.3,0,0,0,1.8.38A4.45,4.45,0,0,0,250,348a8.47,8.47,0,0,0,1.78-1.3l1.54,1.56a8.6,8.6,0,0,1-1.1,1,7.76,7.76,0,0,1-1.24.76,6.51,6.51,0,0,1-1.45.49A8.62,8.62,0,0,1,247.73,350.69Z" transform="translate(-189.7 -226.79)"/><path class="cls-2" d="M256.16,336.81h6.08a6.65,6.65,0,0,1,2.28.36,4.58,4.58,0,0,1,1.66,1,4.2,4.2,0,0,1,.84,1.31,4.52,4.52,0,0,1,.29,1.64v0a4.47,4.47,0,0,1-.24,1.51,4.1,4.1,0,0,1-.68,1.19,3.92,3.92,0,0,1-1,.87,4.86,4.86,0,0,1-1.32.56l3.69,5.17h-2.83l-3.36-4.76h-3v4.76h-2.37Zm5.9,6.76a3.17,3.17,0,0,0,2.05-.61,2,2,0,0,0,.76-1.68v0a2,2,0,0,0-.74-1.69A3.37,3.37,0,0,0,262,339h-3.51v4.6Z" transform="translate(-189.7 -226.79)"/><path class="cls-2" d="M270.64,336.81h10.1V339H273v3.51h6.85v2.17H273v3.64h7.82v2.17h-10.2Z" transform="translate(-189.7 -226.79)"/><path class="cls-2" d="M284.1,336.81h10.1V339h-7.72v3.51h6.84v2.17h-6.84v3.64h7.82v2.17H284.1Z" transform="translate(-189.7 -226.79)"/><path class="cls-2" d="M297.55,336.81h2.22l7.3,9.44v-9.44h2.38v13.65h-2l-7.51-9.71v9.71h-2.38Z" transform="translate(-189.7 -226.79)"/><path class="cls-2" d="M313.49,336.81h2.37v13.65h-2.37Z" transform="translate(-189.7 -226.79)"/><path class="cls-2" d="M319.92,336.81h2.22l7.3,9.44v-9.44h2.37v13.65h-2l-7.51-9.71v9.71h-2.38Z" transform="translate(-189.7 -226.79)"/><path class="cls-2" d="M342.19,350.69a7.73,7.73,0,0,1-2.91-.53,6.66,6.66,0,0,1-2.23-1.49,6.47,6.47,0,0,1-1.43-2.22,7.43,7.43,0,0,1-.51-2.78v0a7.1,7.1,0,0,1,.52-2.71,7,7,0,0,1,1.46-2.25,7.19,7.19,0,0,1,2.24-1.53,7,7,0,0,1,2.84-.57,10.07,10.07,0,0,1,1.63.13,8.29,8.29,0,0,1,1.35.36,6.8,6.8,0,0,1,1.18.58,7.83,7.83,0,0,1,1.08.79l-1.52,1.81a7.58,7.58,0,0,0-.8-.6,4.12,4.12,0,0,0-.85-.46,5.47,5.47,0,0,0-1-.3,6.18,6.18,0,0,0-1.18-.1,4,4,0,0,0-1.74.39,4.69,4.69,0,0,0-1.41,1,4.88,4.88,0,0,0-.93,1.54,5,5,0,0,0-.34,1.85v0a5.42,5.42,0,0,0,.33,2,4.37,4.37,0,0,0,.94,1.54,4.46,4.46,0,0,0,1.46,1,4.77,4.77,0,0,0,1.9.37,5.63,5.63,0,0,0,1.81-.29,5.08,5.08,0,0,0,1.47-.75v-2.57h-3.49v-2.09h5.81v5.74a11.18,11.18,0,0,1-1.12.82,9.11,9.11,0,0,1-1.32.68,8.92,8.92,0,0,1-1.54.46A8.56,8.56,0,0,1,342.19,350.69Z" transform="translate(-189.7 -226.79)"/><path class="cls-3" d="M269,254.45a12.05,12.05,0,0,0,9.53-4.07l-3.24-3.21c-1.83,1.63-3.43,2.66-6.1,2.66-4,0-6.74-3.24-6.74-7.16v-.06a6.8,6.8,0,0,1,6.74-7.09,8.66,8.66,0,0,1,5.94,2.56l3.24-3.69a12.1,12.1,0,0,0-9.15-3.5,11.69,11.69,0,0,0-12.1,11.78v.07A11.55,11.55,0,0,0,269,254.45Z" transform="translate(-189.7 -226.79)"/><path class="cls-3" d="M306,247h4l5,7.41h6l-5.69-8.28a7.21,7.21,0,0,0,5-7.19v-.06c0-4.78-3.27-7.67-8.76-7.67h-10.6v23.2H306Zm0-11.17H311c2.47,0,4,1.12,4,3.31v.06c0,2-1.41,3.27-3.91,3.27H306v-6.64Z" transform="translate(-189.7 -226.79)"/><path class="cls-3" d="M375.71,246.17a7.18,7.18,0,0,0,5-7.19v-.06c0-4.78-3.27-7.67-8.76-7.67H361.29v23.2h5.11V247h4l5,7.41h6Zm-.2-6.93c0,2-1.41,3.27-3.91,3.27h-5.17v-6.64h5.07c2.47,0,4,1.12,4,3.31Z" transform="translate(-189.7 -226.79)"/><path class="cls-3" d="M285.42,247.1h8v7.35h5.23V239a7.51,7.51,0,0,0-5.07-7.41,10.94,10.94,0,0,0-3.85-.64h-.61a10.9,10.9,0,0,0-3.85.64,7.52,7.52,0,0,0-5.08,7.41v15.47h5.24Zm0-8c0-2.25,1.58-3.44,4.05-3.5s4,1.25,4,3.5v3.5h-8.05Z" transform="translate(-189.7 -226.79)"/><polygon class="cls-3" points="150.15 23.14 137.54 23.14 137.54 20.22 148.45 20.22 148.45 15.7 137.54 15.7 137.54 8.99 150.15 8.99 150.15 4.46 132.47 4.46 132.47 27.67 150.15 27.67 150.15 23.14"/><polygon class="cls-3" points="169.7 23.14 157.12 23.14 157.12 20.22 168.03 20.22 168.03 15.7 157.12 15.7 157.12 8.99 169.7 8.99 169.7 4.46 152.04 4.46 152.04 27.67 169.7 27.67 169.7 23.14"/><path class="cls-3" d="M268.53,266.88a4.39,4.39,0,0,0,3-4.24v-.07c0-2.66-2.31-4.36-5.78-4.36h-7.35V276h7.74c3.85,0,6.39-1.89,6.39-4.84v-.07C272.55,268.67,270.65,267.42,268.53,266.88Zm-8.79-7.45h6c2.86,0,4.46,1.31,4.46,3.27v.07c0,2.37-1.89,3.62-4.59,3.62h-5.87v-7Zm11.46,11.75c0,2.24-1.93,3.62-5,3.62h-6.45v-7.19h6c3.5,0,5.43,1.29,5.43,3.5v.07Z" transform="translate(-189.7 -226.79)"/><path class="cls-3" d="M287.92,268.64c0,4.3-2.31,6.48-5.94,6.48s-6-2.4-6-6.61V258.24h-1.32v10.4c0,5,3,7.7,7.32,7.7s7.32-2.72,7.32-7.83V258.24H288v10.4Z" transform="translate(-189.7 -226.79)"/><rect class="cls-3" x="103.45" y="31.42" width="1.32" height="17.81"/><polygon class="cls-3" points="110.03 31.42 108.71 31.42 108.71 49.27 120.49 49.27 120.49 48.02 110.03 48.02 110.03 31.42"/><path class="cls-3" d="M318.19,258.21h-5.94V276h5.94c5.58,0,9.47-3.88,9.47-8.92V267C327.66,262.06,323.77,258.21,318.19,258.21Zm8.09,9c0,4.23-3.15,7.64-8.09,7.64h-4.62V259.46h4.62c5,0,8.09,3.47,8.09,7.7Z" transform="translate(-189.7 -226.79)"/><polygon class="cls-3" points="141.36 40.86 151.59 40.86 151.59 39.64 141.36 39.64 141.36 32.64 152.72 32.64 152.72 31.42 140.04 31.42 140.04 49.27 152.85 49.27 152.85 48.02 141.36 48.02 141.36 40.86"/><path class="cls-3" d="M357.76,262.7c-.06-3.21-2.34-4.52-5.81-4.52H344.6V276h1.32v-8.38h5.46l6.06,8.41h1.67L353,267.61C355.42,267.49,357.83,266.43,357.76,262.7Zm-11.84,3.73v-7h6c2.86,0,4.37,1.06,4.46,3.3.1,2.83-1.6,3.7-4.59,3.7Z" transform="translate(-189.7 -226.79)"/><path class="cls-3" d="M189.7,253.62a26.84,26.84,0,0,0,26.84,26.83h28.4V226.79h-28.4A26.82,26.82,0,0,0,189.7,253.62Zm50.46-2.5h-17.3a6.82,6.82,0,1,0,0,5h17.3a23.8,23.8,0,0,1-23.63,21.22v1.89a25.65,25.65,0,0,1,0-51.29v1.9A23.72,23.72,0,0,1,240.16,251.12Z" transform="translate(-189.7 -226.79)"/><path class="cls-4" d="M190.86,253.62a25.92,25.92,0,0,0,25.64,25.64v-1.89a23.78,23.78,0,0,0,23.63-21.22h-17.3a6.79,6.79,0,1,1,0-5h17.3a23.76,23.76,0,0,0-23.62-21.25V228A25.94,25.94,0,0,0,190.86,253.62ZM216.12,262v5.46h0v.87h0v1h0v2h0V272h0v2.34h0V275h0v1.5h0v.36a28.38,28.38,0,0,1-3.34-.29h0l-.13,0c-.29-.07-.58-.1-.87-.16a.88.88,0,0,0-.32-.07c-.22-.06-.45-.09-.67-.16l-.35-.1-.68-.19-.29-.09c-.32-.1-.64-.2-.93-.32,0,0-.06,0-.09,0-.29-.09-.58-.22-.84-.32-.1,0-.19-.09-.29-.13s-.42-.19-.61-.29-.19-.09-.32-.16l-.22-.09s0,0-.07,0a23.87,23.87,0,0,1-5.23-3.63,0,0,0,0,0,0,0l-.48-.45h0l.07-.06h0l.48-.48h0l1.44-1.45h0l.48-.48h0l1.64-1.64h0l.58-.57h0l1.09-1.1h0l.74-.73h0l.25-.23h0l3.76-3.75A8.16,8.16,0,0,0,216.12,262Zm-8-8.34a8.43,8.43,0,0,0,2.18,5.65l-4.62,4.62h0l-1,1h0l-.61.61h0l-.64.64L202,267.61h0l-1.47,1.48h0l-.48.48h0l-.2.19h0l0,0c-.22-.22-.42-.45-.61-.67l-.19-.23-.48-.57c-.07-.07-.1-.13-.16-.2l-.58-.77c0-.06-.1-.13-.13-.19s-.29-.42-.45-.64c-.06-.07-.1-.16-.16-.23-.16-.25-.32-.51-.48-.8l0,0c-.13-.23-.26-.45-.39-.71v0a23.59,23.59,0,0,1-1.92-4.72v0a4.6,4.6,0,0,1-.16-.64s0-.06,0-.09a9.78,9.78,0,0,1-.22-1,2.5,2.5,0,0,0-.07-.26,7,7,0,0,1-.12-.8c0-.06,0-.16,0-.22-.06-.32-.09-.68-.12-1a.33.33,0,0,0,0-.19c0-.29,0-.55-.06-.83v-.29c0-.36,0-.71,0-1.06h0v0c0-.38,0-.73,0-1.12h0a20.8,20.8,0,0,1,.67-4.49h0v0c.1-.33.16-.65.26-1l.1-.29c.06-.22.16-.45.22-.67a1,1,0,0,1,.13-.32c.1-.23.16-.45.26-.64s.09-.23.12-.32c.1-.26.23-.52.33-.77a.67.67,0,0,0,.06-.16c.16-.33.29-.61.45-.9,0-.07.1-.16.13-.23l.38-.67.2-.29c.06-.1.12-.19.19-.32l0,0a22.7,22.7,0,0,1,3-3.82l.54.54h0l1.48,1.48h0l.48.48h0l.13.13,2.08,2.08h0l.55.55,1.25,1.25h0l.07.07,3.94,3.94A7.94,7.94,0,0,0,208.13,253.62Zm8-14.86v6.48a8.46,8.46,0,0,0-5.27,2.18l-8.31-8.34h0l-1-1L200.39,237l-.06-.06,0,0c.29-.28.58-.54.87-.8l.28-.25c.23-.2.45-.36.68-.55l.35-.26.71-.51.32-.23,1-.67h0a22.05,22.05,0,0,1,4.2-2h0a6.28,6.28,0,0,1,.7-.22s0,0,.07,0c.29-.1.58-.16.87-.26.06,0,.16,0,.22-.07.32-.09.64-.16,1-.22a.26.26,0,0,0,.13,0,6.64,6.64,0,0,1,.87-.16l.22,0a7.8,7.8,0,0,1,1-.13h.12c.2,0,.36,0,.55-.07h.06l1.58-.09v.19h0V232h0v.64h0V235h0v.74h0v1.57l0,1.45Z" transform="translate(-189.7 -226.79)"/><path class="cls-5" d="M200.36,270.31Z" transform="translate(-189.7 -226.79)"/><path class="cls-5" d="M200.94,269.76l-.48.49c.12.16.25.35.38.51a23.18,23.18,0,0,0,5.23,3.63A18.22,18.22,0,0,1,200.94,269.76Z" transform="translate(-189.7 -226.79)"/><path class="cls-5" d="M206.65,274.67l-.32-.16C206.43,274.58,206.55,274.61,206.65,274.67Z" transform="translate(-189.7 -226.79)"/><path class="cls-5" d="M210.76,276.15l-.35-.1Z" transform="translate(-189.7 -226.79)"/><path class="cls-5" d="M207.58,275.06c-.1,0-.19-.1-.29-.13A.56.56,0,0,0,207.58,275.06Z" transform="translate(-189.7 -226.79)"/><path class="cls-5" d="M212.75,276.57l-.13,0A.21.21,0,0,1,212.75,276.57Z" transform="translate(-189.7 -226.79)"/><path class="cls-5" d="M202.83,267.84l-.48.48a18.94,18.94,0,0,0,10.43,8.25,23.16,23.16,0,0,0,3.34.29v-.36A17.57,17.57,0,0,1,202.83,267.84Z" transform="translate(-189.7 -226.79)"/><path class="cls-5" d="M211.75,276.38a.88.88,0,0,0-.32-.07A.88.88,0,0,1,211.75,276.38Z" transform="translate(-189.7 -226.79)"/><path class="cls-5" d="M209.73,275.86l-.29-.09Z" transform="translate(-189.7 -226.79)"/><path class="cls-5" d="M208.48,275.45s-.06,0-.1,0A.13.13,0,0,1,208.48,275.45Z" transform="translate(-189.7 -226.79)"/><path class="cls-5" d="M205,265.62l-.57.58a18.76,18.76,0,0,0,11.65,8.8v-.65a17.66,17.66,0,0,1-4.37-1.79A17.2,17.2,0,0,1,205,265.62Z" transform="translate(-189.7 -226.79)"/><path class="cls-5" d="M216.12,269.25h0v-1h0a17.91,17.91,0,0,1-4.53-2.25,18.83,18.83,0,0,0,4.53,1.38V262a8.16,8.16,0,0,1-5.23-2.18l-3.76,3.76A18.34,18.34,0,0,0,216.12,269.25Z" transform="translate(-189.7 -226.79)"/><path class="cls-5" d="M206.87,263.83l-.73.73a18.3,18.3,0,0,0,6.19,5.78,19.53,19.53,0,0,0,3.79,1.67v-.77A17.66,17.66,0,0,1,206.87,263.83Z" transform="translate(-189.7 -226.79)"/><path class="cls-6" d="M201.84,240.23a4.31,4.31,0,0,0,.44-.25l-.48-.48a19,19,0,0,0-7.83,8.44,25.31,25.31,0,0,0-.67,4.49A17.54,17.54,0,0,1,201.84,240.23Z" transform="translate(-189.7 -226.79)"/><path class="cls-6" d="M200.33,238l-.55-.55a23.05,23.05,0,0,0-3,3.82A17.68,17.68,0,0,1,200.33,238Z" transform="translate(-189.7 -226.79)"/><path class="cls-6" d="M206.3,244,205,242.74l.52.51a18.48,18.48,0,0,0-6.23,6.49,18.77,18.77,0,0,0,.64,19.83l.49-.48a17.46,17.46,0,0,1-3-9.85A17.7,17.7,0,0,1,206.3,244Z" transform="translate(-189.7 -226.79)"/><path class="cls-6" d="M197.08,249.16a17.56,17.56,0,0,1,7.42-7l-2.09-2.08,1.51,1.5c-.16.07-.29.17-.45.26A18.79,18.79,0,0,0,194.16,260a24.92,24.92,0,0,0,1.93,4.71A17.68,17.68,0,0,1,197.08,249.16Z" transform="translate(-189.7 -226.79)"/><path class="cls-6" d="M195.93,242.8l.13-.22A1.42,1.42,0,0,1,195.93,242.8Z" transform="translate(-189.7 -226.79)"/><path class="cls-6" d="M193.55,257.25c0-.07,0-.16,0-.23S193.55,257.15,193.55,257.25Z" transform="translate(-189.7 -226.79)"/><path class="cls-6" d="M193.75,258.31c0-.1,0-.17-.07-.26S193.71,258.21,193.75,258.31Z" transform="translate(-189.7 -226.79)"/><path class="cls-6" d="M196.51,265.46l0,0A0,0,0,0,1,196.51,265.46Z" transform="translate(-189.7 -226.79)"/><path class="cls-6" d="M193.3,254.94v0Z" transform="translate(-189.7 -226.79)"/><path class="cls-6" d="M193.27,253.62Z" transform="translate(-189.7 -226.79)"/><path class="cls-6" d="M193.39,256a.44.44,0,0,0,0-.19A.44.44,0,0,1,193.39,256Z" transform="translate(-189.7 -226.79)"/><path class="cls-6" d="M199.81,269.76h0l0,0A0,0,0,0,0,199.81,269.76Z" transform="translate(-189.7 -226.79)"/><path class="cls-6" d="M199.14,269.06c-.07-.07-.13-.16-.19-.23S199.07,269,199.14,269.06Z" transform="translate(-189.7 -226.79)"/><path class="cls-6" d="M198.47,268.26c-.07-.07-.1-.13-.17-.2A1,1,0,0,1,198.47,268.26Z" transform="translate(-189.7 -226.79)"/><path class="cls-6" d="M197.15,266.49c-.07-.06-.1-.16-.16-.22A1,1,0,0,1,197.15,266.49Z" transform="translate(-189.7 -226.79)"/><path class="cls-6" d="M197.73,267.32a1.27,1.27,0,0,1-.13-.19A1.27,1.27,0,0,0,197.73,267.32Z" transform="translate(-189.7 -226.79)"/><path class="cls-6" d="M194,259.36s0-.06,0-.09A.11.11,0,0,0,194,259.36Z" transform="translate(-189.7 -226.79)"/><path class="cls-6" d="M193.27,253.55c0-.38,0-.73,0-1.12C193.27,252.82,193.27,253.2,193.27,253.55Z" transform="translate(-189.7 -226.79)"/><path class="cls-6" d="M194.93,245a3.05,3.05,0,0,0,.13-.32A1.63,1.63,0,0,1,194.93,245Z" transform="translate(-189.7 -226.79)"/><path class="cls-6" d="M195.38,243.89a.35.35,0,0,0,.07-.16A.35.35,0,0,1,195.38,243.89Z" transform="translate(-189.7 -226.79)"/><path class="cls-6" d="M196.41,241.94l.19-.29A1.32,1.32,0,0,0,196.41,241.94Z" transform="translate(-189.7 -226.79)"/><path class="cls-6" d="M206.49,244.18A18.77,18.77,0,0,0,202,267.61l1.45-1.44-1,1A17.65,17.65,0,0,1,203.6,249a18.78,18.78,0,0,0,.45,16.5l.61-.61a17.47,17.47,0,0,1-1.64-9.06,19.3,19.3,0,0,0,2.67,8l4.65-4.59a8.37,8.37,0,0,1-2.18-5.65,8.47,8.47,0,0,1,2.15-5.62l-3.95-3.95Z" transform="translate(-189.7 -226.79)"/><path class="cls-6" d="M194,247.94Z" transform="translate(-189.7 -226.79)"/><path class="cls-6" d="M194.23,246.94l.09-.29Z" transform="translate(-189.7 -226.79)"/><path class="cls-6" d="M194.55,246a.77.77,0,0,1,.13-.32A1.66,1.66,0,0,1,194.55,246Z" transform="translate(-189.7 -226.79)"/><path class="cls-7" d="M203.57,234.33l1-.68A7.06,7.06,0,0,0,203.57,234.33Z" transform="translate(-189.7 -226.79)"/><path class="cls-7" d="M211.62,230.89a.24.24,0,0,0,.13,0A.18.18,0,0,0,211.62,230.89Z" transform="translate(-189.7 -226.79)"/><path class="cls-7" d="M202.54,235l.71-.51Z" transform="translate(-189.7 -226.79)"/><path class="cls-7" d="M209.51,231.44s0,0,.06,0A.09.09,0,0,1,209.51,231.44Z" transform="translate(-189.7 -226.79)"/><path class="cls-7" d="M213.81,230.51h0Z" transform="translate(-189.7 -226.79)"/><path class="cls-7" d="M210.44,231.18c.06,0,.16,0,.22-.06A.6.6,0,0,0,210.44,231.18Z" transform="translate(-189.7 -226.79)"/><path class="cls-7" d="M200.36,236.9c.29-.29.58-.55.87-.81C200.94,236.35,200.65,236.61,200.36,236.9Z" transform="translate(-189.7 -226.79)"/><path class="cls-7" d="M210.41,234.87a17,17,0,0,1,5.71,1v-.74h0a18.49,18.49,0,0,0-5.59-.84,18.75,18.75,0,0,0-10,2.89l-.13-.19,1.12,1.12-.51-.51A17.72,17.72,0,0,1,210.41,234.87Z" transform="translate(-189.7 -226.79)"/><path class="cls-7" d="M216.12,237.8a19.21,19.21,0,0,0-5.1-.71,18.83,18.83,0,0,0-8.48,2l8.31,8.35a8.42,8.42,0,0,1,5.27-2.19v-5.65a19,19,0,0,0-3.28-.28,18.64,18.64,0,0,0-8.18,1.89L203,239.59a17.73,17.73,0,0,1,7.58-1.73,16.9,16.9,0,0,1,5.52.9v-1Zm-3.79,2.56c.48,0,1,0,1.45.07a19.05,19.05,0,0,0-7.55,2.4l-1-1A18,18,0,0,1,212.33,240.36Z" transform="translate(-189.7 -226.79)"/><path class="cls-7" d="M216.12,232.72h0v-.64h0a18.55,18.55,0,0,0-7.32-.38,23.31,23.31,0,0,0-4.2,2,17.56,17.56,0,0,1,7.12-1.5A17.31,17.31,0,0,1,216.12,232.72Z" transform="translate(-189.7 -226.79)"/><path class="cls-7" d="M216.12,230.38a11.72,11.72,0,0,0-1.57.1,13.9,13.9,0,0,1,1.57.09Z" transform="translate(-189.7 -226.79)"/><path class="cls-7" d="M201.55,235.84c.22-.2.45-.36.67-.55A7.57,7.57,0,0,0,201.55,235.84Z" transform="translate(-189.7 -226.79)"/><path class="cls-7" d="M212.59,230.7l.22,0A.64.64,0,0,0,212.59,230.7Z" transform="translate(-189.7 -226.79)"/><path class="cls-8" d="M200.42,270.25l-.06.06h0c.16.16.32.29.48.45a0,0,0,0,0,0,0c-.13-.13-.26-.32-.39-.48Z" transform="translate(-189.7 -226.79)"/><path class="cls-9" d="M216.12,232.05h0v-1.51h0a13.9,13.9,0,0,0-1.57-.09h-.07a3.31,3.31,0,0,0-.54.06h-.13c-.32,0-.64.1-1,.13l-.22,0-.87.16a.28.28,0,0,0-.13,0l-1,.23c-.06,0-.16,0-.22.06-.29.07-.58.16-.87.26,0,0,0,0-.06,0-.23.06-.48.16-.71.22h0a20.42,20.42,0,0,1,2.7-.19A18.34,18.34,0,0,1,216.12,232.05Z" transform="translate(-189.7 -226.79)"/><path class="cls-9" d="M210.53,234.2a19.81,19.81,0,0,1,5.59.83h0v-2.34h0a17.27,17.27,0,0,0-4.4-.54,17.66,17.66,0,0,0-7.12,1.5h0c-.36.23-.71.45-1,.68l-.32.22a8,8,0,0,0-.71.52l-.35.25c-.23.16-.45.36-.68.55s-.19.16-.28.26c-.29.25-.58.51-.87.8l0,0,.06.06.13.13A18.3,18.3,0,0,1,210.53,234.2Z" transform="translate(-189.7 -226.79)"/><path class="cls-9" d="M216.12,237.8v-2h0a17.78,17.78,0,0,0-5.71-1,17.3,17.3,0,0,0-9.38,2.73l.52.51,1,1h0a18.83,18.83,0,0,1,8.48-2A20.53,20.53,0,0,1,216.12,237.8Z" transform="translate(-189.7 -226.79)"/><path class="cls-9" d="M203,239.59l1.64,1.64a18.84,18.84,0,0,1,11.46-1.61v-.83h0a17.73,17.73,0,0,0-5.52-.9A17.27,17.27,0,0,0,203,239.59Z" transform="translate(-189.7 -226.79)"/><path class="cls-9" d="M213.78,240.43c-.49,0-1-.07-1.45-.07a17.76,17.76,0,0,0-7.06,1.48l1,1A19,19,0,0,1,213.78,240.43Z" transform="translate(-189.7 -226.79)"/><path class="cls-8" d="M207.1,263.57h0l-.26.22h0a17.49,17.49,0,0,0,9.25,7.42h0v-2A18.5,18.5,0,0,1,207.1,263.57Z" transform="translate(-189.7 -226.79)"/><path class="cls-8" d="M216.12,268.29h0v-.87h0a20.28,20.28,0,0,1-4.53-1.38A17.91,17.91,0,0,0,216.12,268.29Z" transform="translate(-189.7 -226.79)"/><path class="cls-8" d="M202.35,268.32h0l-1.45,1.41h0a17.49,17.49,0,0,0,5.11,4.62s0,0,.06,0l.23.09a1.59,1.59,0,0,0,.32.16l.61.29c.09,0,.19.1.29.13.29.13.54.22.83.32l.1,0a8.53,8.53,0,0,0,.93.32l.29.1.67.19.35.1.68.16a1.13,1.13,0,0,0,.32.06,6.64,6.64,0,0,0,.87.16l.12,0h0A18.83,18.83,0,0,1,202.35,268.32Z" transform="translate(-189.7 -226.79)"/><path class="cls-8" d="M204.47,266.23h0l-1.64,1.64h0a17.58,17.58,0,0,0,13.29,8.67h0V275h0A18.76,18.76,0,0,1,204.47,266.23Z" transform="translate(-189.7 -226.79)"/><path class="cls-8" d="M206.14,264.56h0l-1.1,1.1h0a17.63,17.63,0,0,0,6.71,6.93,18.09,18.09,0,0,0,4.37,1.8h0V272h0a18.77,18.77,0,0,1-10-7.48Z" transform="translate(-189.7 -226.79)"/><path class="cls-10" d="M201.8,239.5h0L200.33,238h0a17.68,17.68,0,0,0-3.53,3.27l0,0c-.06.09-.12.19-.19.32l-.19.29-.39.67-.12.22a7.55,7.55,0,0,0-.45.9.47.47,0,0,0-.07.16c-.13.26-.22.52-.32.77,0,.1-.1.2-.13.32s-.16.45-.25.65a3.05,3.05,0,0,0-.13.32c-.07.22-.16.45-.23.67l-.09.29a8.55,8.55,0,0,0-.26,1v0h0A19.3,19.3,0,0,1,201.8,239.5Z" transform="translate(-189.7 -226.79)"/><path class="cls-10" d="M203.47,241.84l.45-.26-1.51-1.51-.13-.12h0a4.31,4.31,0,0,0-.44.25,17.54,17.54,0,0,0-8.54,12.2h0c0,.38,0,.74,0,1.12v0h0c0,.36,0,.71,0,1.06v.29a7.37,7.37,0,0,0,.06.84.42.42,0,0,0,0,.19c0,.35.07.67.13,1,0,.06,0,.16,0,.22,0,.26.1.55.13.8a2.5,2.5,0,0,0,.07.26c.06.32.13.64.22,1,0,0,0,.07,0,.1a4.6,4.6,0,0,1,.16.64v0A18.77,18.77,0,0,1,203.47,241.84Z" transform="translate(-189.7 -226.79)"/><path class="cls-10" d="M199.33,249.74a18.48,18.48,0,0,1,6.23-6.49l-.52-.51-.54-.55h0a17.56,17.56,0,0,0-8.41,22.5v0c.13.23.26.45.39.71l0,0,.48.81c.06.06.09.16.16.22.13.22.29.42.45.64a1.27,1.27,0,0,0,.13.19l.57.77c.07.07.1.13.17.2l.48.58c.06.06.12.16.19.22.19.22.42.45.61.67l0,0h0l.19-.2h0A18.77,18.77,0,0,1,199.33,249.74Z" transform="translate(-189.7 -226.79)"/><path class="cls-10" d="M206.49,244.18l-.13-.13-.06-.06h0a17.59,17.59,0,0,0-5.84,25.13h0l1.47-1.47h0a18.79,18.79,0,0,1,4.56-23.47Z" transform="translate(-189.7 -226.79)"/><path class="cls-10" d="M203.6,249a17.49,17.49,0,0,0-1.15,18.13l1-1,.64-.64h0A19,19,0,0,1,203.6,249Z" transform="translate(-189.7 -226.79)"/><path class="cls-10" d="M204.66,264.89h0l1-1h0a18.74,18.74,0,0,1-2.67-8A17.88,17.88,0,0,0,204.66,264.89Z" transform="translate(-189.7 -226.79)"/><line class="cls-11" x1="169.57" y1="34.99" x2="169.57" y2="34.99"/><path class="cls-3" d="M361.33,262.61a2.22,2.22,0,1,1,2.21-2.22A2.23,2.23,0,0,1,361.33,262.61Zm0-4.05a1.87,1.87,0,1,0,1.86,1.86A1.87,1.87,0,0,0,361.33,258.56Z" transform="translate(-189.7 -226.79)"/><path class="cls-3" d="M360.52,259.36h1a1.28,1.28,0,0,1,.35.07.63.63,0,0,1,.26.16.67.67,0,0,1,.12.19.53.53,0,0,1,0,.26h0a.61.61,0,0,1,0,.26.47.47,0,0,1-.12.19,1.13,1.13,0,0,1-.2.13.6.6,0,0,1-.22.06l.67.9H362l-.64-.87h-.61v.87h-.26v-2.22Zm.93,1.13a.54.54,0,0,0,.23,0l.19-.1c.07,0,.1-.1.13-.13a.42.42,0,0,0,0-.19h0a.38.38,0,0,0-.16-.32.65.65,0,0,0-.42-.13h-.67v.9Z" transform="translate(-189.7 -226.79)"/></svg>