<?xml version="1.0" encoding="utf-8"?>
<!-- Generator: Adobe Illustrator 19.1.0, SVG Export Plug-In . SVG Version: 6.00 Build 0)  -->
<svg version="1.1" id="Layer_1" xmlns="http://www.w3.org/2000/svg" xmlns:xlink="http://www.w3.org/1999/xlink" x="0px" y="0px"
	 viewBox="0 0 283 30" enable-background="new 0 0 283 30" xml:space="preserve">
<g>
	<g>
		<g>
			<path fill="#182642" d="M31.247,0v30H15.364c-8.284,0-15-6.716-15-15c0-8.284,6.716-15,15-15L31.247,0z"/>
			<path fill="#FFFFFF" d="M18.912,13.598c-0.559-1.412-1.936-2.411-3.547-2.411c-2.106,0-3.814,1.707-3.814,3.814
				s1.707,3.814,3.814,3.814c1.6,0,2.97-0.985,3.536-2.382l9.681,0c-0.714,6.668-6.359,11.862-13.217,11.862v1.053
				C7.562,29.346,1.018,22.803,1.018,15S7.562,0.654,15.364,0.654v1.053c6.868,0,12.52,5.209,13.22,11.891L18.912,13.598z"/>
			<path fill="#009B74" d="M15.138,19.68c-1.128-0.052-2.147-0.504-2.929-1.217l-5.885,5.882c2.291,2.217,5.387,3.599,8.814,3.655
				V19.68z"/>
			<path fill="#287AB9" d="M11.901,18.155c-0.759-0.833-1.222-1.94-1.222-3.155c0-1.21,0.458-2.312,1.211-3.143L6.006,5.973
				C3.75,8.312,2.362,11.494,2.362,15c0,3.51,1.391,6.695,3.651,9.034L11.901,18.155z"/>
			<path fill="#FDB816" d="M15.138,1.999c-3.429,0.057-6.529,1.442-8.821,3.662l5.882,5.885c0.782-0.717,1.807-1.172,2.938-1.226
				L15.138,1.999z"/>
			<path fill="#FFFFFF" d="M15.138,23.753v1.105c0.002,0.001,0.004,0.001,0.005,0.002v-1.106
				C15.141,23.754,15.14,23.754,15.138,23.753"/>
			<polyline fill="#FFFFFF" points="15.138,22.734 15.138,23.214 15.143,23.215 15.143,22.735 15.138,22.734 			"/>
			<path fill="#FFFFFF" d="M15.138,2.104l0,0.839c0.002,0,0.004,0.001,0.005,0.001v-0.84C15.141,2.104,15.139,2.104,15.138,2.104"/>
			<path fill="#FFFFFF" d="M15.138,3.309l0,1.318c0.002,0.001,0.004,0.001,0.006,0.002V3.31C15.141,3.31,15.139,3.309,15.138,3.309"
				/>
			<path fill="#007457" d="M6.368,24.301l-0.044,0.044c0.089,0.086,0.179,0.171,0.271,0.255C6.517,24.501,6.442,24.402,6.368,24.301
				"/>
			<g>
				<path fill="#F79C25" d="M14.232,2.046c-1.111,0.096-2.182,0.331-3.195,0.688c0.506-0.074,1.014-0.111,1.521-0.111
					c0.873,0,1.739,0.109,2.58,0.32l0-0.839C14.837,2.071,14.535,2.051,14.232,2.046"/>
				<path fill="#F79C25" d="M12.679,2.995c-1.373,0-2.731,0.288-3.982,0.839c-0.863,0.517-1.661,1.131-2.38,1.827L6.417,5.76
					c1.678-1.052,3.625-1.61,5.602-1.61c1.043,0,2.095,0.155,3.119,0.476l0-1.318C14.326,3.098,13.5,2.995,12.679,2.995"/>
				<path fill="#F79C25" d="M11.939,4.515c-1.931,0-3.731,0.556-5.25,1.517l0.852,0.853c1.425-0.722,3.036-1.128,4.742-1.128
					c0.99,0,1.946,0.141,2.854,0.397l0-1.106C14.135,4.703,13.059,4.515,11.939,4.515"/>
				<path fill="#F79C25" d="M12.052,6.198c-1.43,0-2.875,0.312-4.234,0.964L8.725,8.07c1.468-0.716,3.032-1.056,4.579-1.056
					c0.617,0,1.23,0.054,1.834,0.16l0-0.481C14.145,6.367,13.103,6.198,12.052,6.198"/>
				<path fill="#F79C25" d="M13.027,7.592c-1.363,0-2.711,0.283-3.954,0.826l0.55,0.55c1.296-0.741,2.735-1.197,4.215-1.342
					C13.568,7.604,13.297,7.592,13.027,7.592"/>
			</g>
			<g>
				<path fill="#007457" d="M10.101,20.571l-0.135,0.134c1.182,1.921,3.005,3.405,5.172,4.153v-1.105
					C13.161,23.193,11.42,22.073,10.101,20.571"/>
				<path fill="#007457" d="M12.609,21.955c0.782,0.543,1.635,0.964,2.529,1.259v-0.479C14.267,22.58,13.416,22.321,12.609,21.955"
					/>
				<path fill="#007457" d="M7.443,23.227l-0.799,0.799c0.78,1.048,1.765,1.936,2.895,2.604c1.156,0.581,2.411,0.994,3.734,1.207
					C10.815,27.055,8.749,25.396,7.443,23.227"/>
				<path fill="#007457" d="M8.619,22.052L7.71,22.96c1.626,2.81,4.43,4.511,7.428,4.845v-0.841
					C12.488,26.295,10.099,24.602,8.619,22.052"/>
				<path fill="#007457" d="M9.554,21.117l-0.609,0.608c0.835,1.564,2.104,2.921,3.753,3.873c0.784,0.453,1.604,0.782,2.44,1V25.28
					c-0.723-0.227-1.433-0.535-2.117-0.929C11.585,23.522,10.42,22.406,9.554,21.117"/>
			</g>
			<g>
				<path fill="#1E5C8B" d="M6.315,6.282c-0.744,0.52-1.414,1.141-1.988,1.842c-0.707,1.132-1.244,2.38-1.577,3.71
					c0.932-1.998,2.473-3.655,4.385-4.731L6.315,6.282z"/>
				<path fill="#1E5C8B" d="M7.406,7.373C7.319,7.419,7.233,7.467,7.148,7.516c-2.624,1.515-4.285,4.056-4.77,6.824
					C2.367,14.559,2.362,14.778,2.362,15c0,1.244,0.174,2.447,0.501,3.586c-0.402-3.99,1.507-8.031,5.205-10.166
					c0.082-0.047,0.164-0.094,0.247-0.138L7.406,7.373z"/>
				<path fill="#1E5C8B" d="M8.649,8.616c-1.68,0.83-3.142,2.15-4.149,3.895c-1.595,2.762-1.697,5.976-0.557,8.709
					c0.563,1.031,1.261,1.977,2.07,2.815l0.099-0.099c-2.152-3.224-2.434-7.518-0.365-11.102c0.883-1.529,2.091-2.751,3.487-3.631
					L8.649,8.616z"/>
				<path fill="#1E5C8B" d="M9.655,9.622c-2.958,1.696-4.952,4.883-4.952,8.538c0,2.039,0.62,3.932,1.683,5.502l0.831-0.83
					c-0.811-1.491-1.272-3.2-1.273-5.017c0-3.258,1.483-6.167,3.808-8.096L9.655,9.622z"/>
				<path fill="#1E5C8B" d="M8.143,12.421c-2.022,2.916-2.38,6.814-0.653,10.139l0.909-0.907
					C6.841,18.684,6.845,15.283,8.143,12.421"/>
				<path fill="#1E5C8B" d="M7.814,16.26c-0.145,1.742,0.18,3.489,0.924,5.054l0.575-0.574C8.479,19.377,7.969,17.842,7.814,16.26"
					/>
			</g>
		</g>
		<g>
			<g>
				<g>
					<path fill="#182642" d="M49.944,25.848c-6.384,0-11.127-4.834-11.127-10.946v-0.061c0-6.051,4.649-11.007,11.312-11.007
						c4.091,0,6.54,1.338,8.554,3.284l-3.037,3.436c-1.673-1.49-3.378-2.402-5.548-2.402c-3.657,0-6.291,2.98-6.291,6.628v0.061
						c0,3.649,2.572,6.69,6.291,6.69c2.479,0,3.998-0.973,5.703-2.494l3.037,3.011C56.608,24.388,54.128,25.848,49.944,25.848z"/>
				</g>
				<path fill="#182642" d="M93.204,18.1c2.758-1.023,4.649-3.223,4.649-6.725v-0.062c0-4.463-3.068-7.16-8.182-7.16h-9.918v21.696
					h4.773v-6.942h3.75l4.649,6.942h5.579L93.204,18.1z M93.018,11.622c0,1.828-1.333,3.068-3.657,3.068h-4.835v-6.23h4.742
					c2.324,0,3.75,1.054,3.75,3.099V11.622z"/>
				<path fill="#182642" d="M149.711,18.1c2.758-1.023,4.649-3.223,4.649-6.725v-0.062c0-4.463-3.068-7.16-8.182-7.16h-9.918v21.696
					h4.773v-6.942h3.75l4.649,6.942h5.579L149.711,18.1z M149.525,11.622c0,1.828-1.333,3.068-3.657,3.068h-4.835v-6.23h4.742
					c2.324,0,3.75,1.054,3.75,3.099V11.622z"/>
				<path fill="#182642" d="M72.951,4.436c-1.055-0.386-2.259-0.602-3.611-0.602H68.78c-1.351,0-2.556,0.217-3.611,0.602
					c-3.007,1.1-4.74,3.638-4.74,6.935v0.062v14.414h4.902v-6.879h7.458v6.879h4.902V11.433v-0.062
					C77.691,8.074,75.959,5.536,72.951,4.436z M65.29,14.703l0.003-3.268c0.013-2.09,1.456-3.224,3.768-3.265
					c2.312,0.041,3.754,1.175,3.768,3.265l0.003,3.268H65.29z"/>
				<polygon fill="#182642" points="104.426,21.602 104.426,18.892 114.624,18.892 114.624,14.648 104.426,14.648 104.426,8.399
					116.203,8.399 116.203,4.152 99.684,4.152 99.684,25.848 116.203,25.848 116.203,21.602 				"/>
				<polygon fill="#182642" points="122.714,21.602 122.714,18.892 132.912,18.892 132.912,14.648 122.714,14.648 122.714,8.399
					134.491,8.399 134.491,4.152 117.972,4.152 117.972,25.848 134.491,25.848 134.491,21.602 				"/>
			</g>
			<g>
				<path fill="#182642" d="M169.445,14.689c1.761-0.71,3.676-2.192,3.676-5.126V9.501c0-3.243-2.811-5.312-7.011-5.312h-8.926
					v21.62h9.389c4.664,0,7.752-2.285,7.752-5.899v-0.062C174.325,16.851,172.04,15.369,169.445,14.689z M158.79,5.671h7.289
					c3.459,0,5.405,1.606,5.405,3.984v0.062c0,2.872-2.316,4.414-5.559,4.414h-7.135V5.671z M172.688,19.909
					c0,2.717-2.347,4.417-6.053,4.417h-7.845v-8.712h7.32c4.262,0,6.578,1.577,6.578,4.233V19.909z"/>
				<g>
					<path fill="#182642" d="M185.705,26.148c-5.189,0-8.865-3.274-8.865-9.327V4.188h1.606v12.477c0,5.096,2.749,8.031,7.32,8.031
						c4.386,0,7.196-2.656,7.196-7.876V4.188h1.606v12.447C194.569,22.843,190.955,26.148,185.705,26.148z"/>
				</g>
				<g>
					<rect x="199.333" y="4.188" fill="#182642" width="1.606" height="21.62"/>
				</g>
				<g>
					<polygon fill="#182642" points="205.703,25.808 205.703,4.188 207.309,4.188 207.309,24.326 220.003,24.326 220.003,25.808
											"/>
				</g>
				<path fill="#182642" d="M229.698,4.188h-7.196v21.62h7.196c6.795,0,11.489-4.725,11.489-10.81v-0.062
					C241.187,8.852,236.492,4.188,229.698,4.188z M239.519,15.06c0,5.157-3.799,9.265-9.822,9.265h-5.591V5.671h5.591
					c6.023,0,9.822,4.2,9.822,9.327V15.06z"/>
				<g>
					<polygon fill="#182642" points="243.733,25.808 243.733,4.188 259.114,4.188 259.114,5.671 245.339,5.671 245.339,14.131
						257.724,14.131 257.724,15.614 245.339,15.614 245.339,24.326 259.269,24.326 259.269,25.808 					"/>
				</g>
				<path fill="#182642" d="M271.918,15.614c2.951-0.197,5.866-1.49,5.789-5.978c-0.067-3.907-2.842-5.481-7.043-5.481h-8.926v21.62
					h1.606l0-0.026v-1.457v-8.678c0,0,5.676-0.001,6.139,0l0.455-0.005l7.367,10.199l2.038,0L271.918,15.614z M263.345,14.131V5.638
					h7.289c3.459,0,5.312,1.295,5.405,4.005c0.118,3.446-1.945,4.489-5.559,4.489C267.971,14.131,263.345,14.131,263.345,14.131z"/>
			</g>
		</g>
	</g>
	<g>
		<line fill="#182642" x1="278.558" y1="7.26" x2="278.558" y2="7.275"/>
		<path fill="#182642" d="M280.474,8.052c-1.141,0-2.07-0.929-2.07-2.07s0.929-2.07,2.07-2.07c1.141,0,2.07,0.929,2.07,2.07
			S281.616,8.052,280.474,8.052z M280.474,4.257c-0.951,0-1.725,0.774-1.725,1.725s0.774,1.725,1.725,1.725s1.725-0.774,1.725-1.725
			S281.425,4.257,280.474,4.257z"/>
		<g>
			<path fill="#182642" d="M279.743,5.002h0.886c0.128,0,0.241,0.018,0.34,0.054c0.099,0.036,0.181,0.087,0.246,0.152
				c0.051,0.051,0.09,0.111,0.118,0.18c0.028,0.069,0.041,0.144,0.041,0.227v0.006c0,0.086-0.014,0.163-0.041,0.231
				c-0.028,0.068-0.066,0.127-0.116,0.177c-0.05,0.05-0.109,0.091-0.178,0.124c-0.069,0.032-0.143,0.055-0.224,0.069l0.633,0.842
				h-0.286l-0.598-0.801h-0.006h-0.583v0.801h-0.232V5.002z M280.61,6.053c0.077,0,0.148-0.01,0.213-0.029s0.121-0.048,0.168-0.084
				c0.047-0.036,0.084-0.08,0.111-0.133c0.027-0.052,0.04-0.111,0.04-0.178V5.624c0-0.127-0.046-0.227-0.139-0.299
				s-0.222-0.107-0.39-0.107h-0.638v0.836H280.61z"/>
		</g>
	</g>
</g>
</svg>
