<?xml version="1.0" encoding="utf-8"?>
<!-- Generator: Adobe Illustrator 19.1.0, SVG Export Plug-In . SVG Version: 6.00 Build 0)  -->
<svg version="1.1" id="Layer_1" xmlns="http://www.w3.org/2000/svg" xmlns:xlink="http://www.w3.org/1999/xlink" x="0px" y="0px"
	 viewBox="0 0 172 167.1" enable-background="new 0 0 172 167.1" xml:space="preserve">
<g>
	<path fill="#182642" d="M83.6,0C37.4,0,0,37.4,0,83.5v0c0,46.1,37.4,83.5,83.6,83.5H172V0H83.6z M83.6,104.8
		c8.9,0,16.5-5.5,19.7-13.3l53.9,0c-4,37.1-35.4,66.1-73.6,66.1v5.9c-43.5,0-79.9-36.5-79.9-79.9S40.1,3.6,83.6,3.6v5.9
		c38.3,0,69.7,29,73.6,66.2l-53.9,0c-3.1-7.9-10.8-13.4-19.8-13.4c-11.7,0-21.2,9.5-21.2,21.2C62.3,95.3,71.8,104.8,83.6,104.8z"/>
	<path fill="#FFFFFF" d="M83.6,62.3c9,0,16.6,5.6,19.8,13.4l53.9,0c-3.9-37.2-35.4-66.2-73.6-66.2V3.6C40.1,3.6,3.6,40.1,3.6,83.6
		s36.5,79.9,79.9,79.9v-5.9c38.2,0,69.6-28.9,73.6-66.1l-53.9,0c-3.2,7.8-10.8,13.3-19.7,13.3c-11.7,0-21.2-9.5-21.2-21.2
		C62.3,71.8,71.8,62.3,83.6,62.3z M82.3,109.6v17h0v2.7h0v0v3v0v6.2v0v2.4l0,0v7.3l0,0v2l0,0v4.7h0v1.1c-3.5-0.1-7-0.4-10.4-0.9
		c0,0,0,0,0,0c0,0-0.1,0-0.1,0c-0.1,0-0.3-0.1-0.4-0.1c-0.9-0.2-1.8-0.3-2.7-0.5c-0.3-0.1-0.7-0.2-1-0.2c-0.7-0.2-1.4-0.3-2.1-0.5
		c-0.4-0.1-0.7-0.2-1.1-0.3c-0.7-0.2-1.4-0.4-2.1-0.6c-0.3-0.1-0.6-0.2-0.9-0.3c-1-0.3-2-0.6-2.9-1c-0.1,0-0.2-0.1-0.2-0.1
		c-0.9-0.3-1.8-0.7-2.6-1c-0.3-0.1-0.6-0.3-0.9-0.4c-0.7-0.3-1.3-0.6-2-0.9c-0.3-0.2-0.6-0.3-1-0.5c-0.2-0.1-0.5-0.2-0.7-0.3
		c-0.1,0-0.1-0.1-0.2-0.1c-5.9-3-11.4-6.8-16.3-11.3c0,0,0,0.1,0.1,0.1c-0.5-0.5-1-0.9-1.5-1.4c0,0,0,0,0,0l0,0l0,0l0.2-0.2
		c0,0,0,0,0,0l1.5-1.5l0,0l4.5-4.5l0,0l1.5-1.5c0,0,0,0,0,0l5.1-5.1l0,0l1.8-1.8l0,0l3.4-3.4l0,0l2.3-2.3l0,0l0.8-0.7l0,0L66,102.9
		C70.3,106.8,76,109.3,82.3,109.6z M57.5,83.6c0,6.8,2.6,12.9,6.8,17.6l-14.4,14.4c0,0,0,0,0,0l-3.2,3.2c0,0,0,0,0,0l-1.9,1.9l0,0
		l-1.9,1.9l-4.6,4.6l0,0l-4.3,4.3l-1.9,1.9l0,0l-0.6,0.6l0,0l0,0c0,0-0.1-0.1-0.1-0.1c-0.7-0.7-1.3-1.4-1.9-2.1
		c-0.2-0.2-0.4-0.5-0.6-0.7c-0.5-0.6-1-1.2-1.5-1.8c-0.2-0.2-0.3-0.4-0.5-0.6c-0.6-0.8-1.2-1.6-1.8-2.4c-0.1-0.2-0.3-0.4-0.4-0.6
		c-0.5-0.6-0.9-1.3-1.4-2c-0.2-0.2-0.3-0.5-0.5-0.7c-0.5-0.8-1-1.6-1.5-2.5c0,0-0.1-0.1-0.1-0.1c-0.4-0.7-0.8-1.4-1.2-2.2
		c0,0,0-0.1,0-0.1c-2.5-4.6-4.5-9.5-6-14.7c0,0,0,0.1,0,0.1c-0.2-0.7-0.4-1.4-0.5-2c0-0.1-0.1-0.2-0.1-0.3c-0.3-1-0.5-2-0.7-3.1
		c-0.1-0.3-0.1-0.5-0.2-0.8c-0.2-0.8-0.3-1.7-0.4-2.5c0-0.2-0.1-0.5-0.1-0.7c-0.2-1-0.3-2.1-0.4-3.1c0-0.2,0-0.4-0.1-0.6
		c-0.1-0.9-0.1-1.7-0.2-2.6c0-0.3,0-0.6,0-0.9c0-1.1-0.1-2.2-0.1-3.3c0,0,0,0,0,0v0v0c0,0,0-0.1,0-0.1c0-1.2,0-2.3,0.1-3.5
		c0,0,0,0,0,0c0,0,0,0,0,0c0.2-4.8,0.9-9.5,2.1-14c0,0,0,0,0,0c0,0,0,0,0,0c0,0,0,0,0-0.1c0.3-1,0.5-2,0.8-3
		c0.1-0.3,0.2-0.6,0.3-0.9c0.2-0.7,0.5-1.4,0.7-2.1c0.1-0.4,0.2-0.7,0.4-1.1c0.3-0.7,0.5-1.4,0.8-2c0.1-0.3,0.3-0.7,0.4-1
		c0.3-0.8,0.7-1.6,1-2.4c0.1-0.2,0.2-0.4,0.2-0.5c0.5-1,0.9-1.9,1.4-2.8c0.1-0.2,0.3-0.5,0.4-0.7c0.4-0.7,0.8-1.4,1.2-2.1
		c0.2-0.3,0.4-0.6,0.6-0.9c0.2-0.3,0.4-0.6,0.6-1c0,0,0.1-0.1,0.1-0.1c2.7-4.3,5.8-8.3,9.3-11.9l1.7,1.7l0,0l4.6,4.6l0,0l1.5,1.5h0
		l1.8,1.8l5.1,5.1l0,0l0.7,0.7L64.2,66C60,70.7,57.5,76.8,57.5,83.6z M51.6,50L51.6,50l-0.1-0.1L40,38.4l0,0l-3.5-3.5l-3.1-3.1
		l-0.2-0.2c0,0,0.1,0,0.1-0.1c0.9-0.9,1.8-1.7,2.7-2.5c0.3-0.3,0.6-0.5,0.9-0.8c0.7-0.6,1.4-1.1,2.1-1.7c0.4-0.3,0.7-0.5,1.1-0.8
		c0.7-0.5,1.5-1.1,2.2-1.6c0.3-0.2,0.6-0.4,1-0.7c1.1-0.7,2.1-1.4,3.2-2.1c0,0,0,0,0,0c0,0,0,0,0,0c4.1-2.5,8.5-4.5,13.1-6.1
		c0,0-0.1,0-0.1,0c0.7-0.3,1.5-0.5,2.2-0.7c0.1,0,0.1,0,0.2-0.1c0.9-0.3,1.8-0.5,2.7-0.8c0.2-0.1,0.5-0.1,0.7-0.2c1-0.3,2-0.5,3-0.7
		c0.1,0,0.2,0,0.3-0.1c0.9-0.2,1.8-0.4,2.7-0.5c0.2,0,0.5-0.1,0.7-0.1c1-0.2,2-0.3,3-0.4c0.1,0,0.3,0,0.4,0c0.6-0.1,1.1-0.1,1.7-0.2
		c0.1,0,0.1,0,0.2,0c1.6-0.1,3.2-0.2,4.9-0.3l0,0.6l0,0l0,4.7l0,0v0l0,0l0,2l0,0l0,0l0,0l0,7.3h0l0,2.3l0,0l0,4.1l0,5.1l0,0l0,0.5
		l0,19.7c-6.3,0.3-12,2.8-16.4,6.8L51.6,50z"/>
	<path fill="#009B74" d="M47.8,121l-1.8,1.8c8.2,14.2,21.5,23.6,36.3,27.4v-2c-4.7-1.2-9.2-3.1-13.6-5.6
		C59.5,137.3,52.5,129.7,47.8,121z"/>
	<path fill="#009B74" d="M53.5,115.3l-2.3,2.3c4.8,7.2,11.3,13.4,19.3,18c3.8,2.2,7.8,3.9,11.8,5.2v-2.4
		C70.2,134.3,60.1,126,53.5,115.3z"/>
	<path fill="#009B74" d="M35,133.8l-1.5,1.5c0.4,0.5,0.8,1.1,1.2,1.6c4.9,4.5,10.3,8.3,16.3,11.3C44.7,144.5,39.3,139.6,35,133.8z"
		/>
	<path fill="#009B74" d="M65.6,153.7c-0.4-0.1-0.7-0.2-1.1-0.3C64.9,153.6,65.2,153.6,65.6,153.7z"/>
	<path fill="#009B74" d="M40.9,127.9l-1.5,1.5c7.3,12.1,18.8,21.3,32.5,25.7c3.4,0.5,6.9,0.9,10.4,0.9v-1.1
		C65.6,153,50,143.6,40.9,127.9z"/>
	<path fill="#009B74" d="M82.3,132.3L82.3,132.3v-3v0c-5-1.6-9.7-4-14.1-7c4.5,2,9.2,3.5,14.1,4.3v-17c-6.3-0.3-12-2.8-16.3-6.8
		l-11.7,11.7C61.6,123,71.3,129.2,82.3,132.3z"/>
	<path fill="#009B74" d="M55.7,150.4c-0.3-0.1-0.6-0.3-0.9-0.4C55.1,150.2,55.4,150.3,55.7,150.4z"/>
	<path fill="#009B74" d="M52.8,149.1c-0.3-0.2-0.6-0.3-1-0.5C52.2,148.8,52.5,149,52.8,149.1z"/>
	<path fill="#009B74" d="M58.5,151.6c-0.1,0-0.2-0.1-0.2-0.1C58.4,151.5,58.5,151.5,58.5,151.6z"/>
	<path fill="#009B74" d="M62.4,152.9c-0.3-0.1-0.6-0.2-0.9-0.3C61.8,152.7,62.1,152.8,62.4,152.9z"/>
	<path fill="#009B74" d="M68.7,154.5c-0.3-0.1-0.7-0.2-1-0.2C68,154.3,68.4,154.4,68.7,154.5z"/>
	<path fill="#009B74" d="M33.2,135.6C33.2,135.6,33.2,135.6,33.2,135.6C33.2,135.6,33.2,135.6,33.2,135.6L33.2,135.6z"/>
	<path fill="#009B74" d="M71.8,155c-0.1,0-0.3-0.1-0.4-0.1C71.5,155,71.7,155,71.8,155z"/>
	<path fill="#287AB9" d="M11.3,87.7c0-0.3,0-0.6,0-0.9C11.2,87.1,11.2,87.4,11.3,87.7z"/>
	<path fill="#287AB9" d="M12.6,98.2c-0.1-0.3-0.1-0.5-0.2-0.8C12.5,97.6,12.6,97.9,12.6,98.2z"/>
	<path fill="#287AB9" d="M12,94.8c0-0.2-0.1-0.5-0.1-0.7C11.9,94.4,12,94.6,12,94.8z"/>
	<path fill="#287AB9" d="M11.5,91c0-0.2,0-0.4-0.1-0.6C11.5,90.5,11.5,90.8,11.5,91z"/>
	<path fill="#287AB9" d="M13.4,101.5c0-0.1-0.1-0.2-0.1-0.3C13.3,101.3,13.3,101.4,13.4,101.5z"/>
	<path fill="#287AB9" d="M37.8,41.9c0.5-0.3,1-0.5,1.4-0.8l-1.5-1.5c-10.6,6-19.2,15.2-24.4,26.3c-1.1,4.5-1.8,9.2-2.1,14
		C13.9,64.5,23.2,50.3,37.8,41.9z"/>
	<path fill="#287AB9" d="M49.4,51.3C41.6,56.2,34.9,63,30,71.5c-11.5,20-10,43.9,2,61.8l1.9-1.9l-0.3,0.3
		c-5.9-8.7-9.4-19.3-9.4-30.6c0-20.4,11.1-38.1,27.6-47.6l0.5,0.5c-13,10.7-21.2,27-21.2,45.1c0,10.1,2.6,19.6,7.1,27.9l4.6-4.6
		l-3.1,3.1c-9.6-18.5-7.6-40.2,3.6-56.5c-7.2,15.9-7.3,34.9,1.4,51.4l1.9-1.9c-4.1-8.7-6-18.4-5.1-28.2c0.9,8.8,3.7,17.4,8.3,25
		l14.4-14.4c-4.2-4.6-6.8-10.8-6.8-17.6c0-6.7,2.6-12.9,6.7-17.5L46.9,48.7L49.4,51.3z"/>
	<path fill="#287AB9" d="M23.3,123.7c-0.2-0.2-0.3-0.5-0.5-0.7C22.9,123.2,23.1,123.4,23.3,123.7z"/>
	<path fill="#287AB9" d="M23,69.7C28.6,60,36.8,52.6,46.1,48l-5.1-5.1l3.2,3.2c-0.5,0.2-0.9,0.5-1.4,0.8
		c-20.6,11.9-31.2,34.3-29,56.5c1.5,5.1,3.5,10.1,6,14.7C13.6,102.9,14.2,85,23,69.7z"/>
	<path fill="#287AB9" d="M21.2,120.5c0,0-0.1-0.1-0.1-0.1C21.2,120.4,21.2,120.4,21.2,120.5z"/>
	<polygon fill="#287AB9" points="11.1,83.6 11.1,83.6 11.1,83.6 	"/>
	<path fill="#287AB9" d="M16.3,56.6c0.1-0.3,0.3-0.7,0.4-1C16.6,56,16.4,56.3,16.3,56.6z"/>
	<path fill="#287AB9" d="M20.9,47.1c0.2-0.3,0.4-0.6,0.6-0.9C21.3,46.5,21.1,46.8,20.9,47.1z"/>
	<path fill="#287AB9" d="M19.4,49.9c0.1-0.2,0.3-0.5,0.4-0.7C19.7,49.4,19.5,49.7,19.4,49.9z"/>
	<path fill="#287AB9" d="M15.2,59.7c0.1-0.4,0.2-0.7,0.4-1.1C15.4,59,15.3,59.3,15.2,59.7z"/>
	<path fill="#287AB9" d="M33.1,35l-1.7-1.7c-3.5,3.6-6.6,7.6-9.3,11.9C25.3,41.3,29,37.9,33.1,35z"/>
	<path fill="#287AB9" d="M11.1,83.4c0-1.2,0-2.3,0.1-3.5C11.2,81.1,11.1,82.2,11.1,83.4z"/>
	<path fill="#287AB9" d="M13.3,65.9C13.3,65.9,13.3,65.8,13.3,65.9C13.3,65.8,13.3,65.9,13.3,65.9z"/>
	<path fill="#287AB9" d="M14.2,62.8c0.1-0.3,0.2-0.6,0.3-0.9C14.4,62.1,14.3,62.5,14.2,62.8z"/>
	<path fill="#287AB9" d="M17.7,53.3c0.1-0.2,0.2-0.4,0.2-0.5C17.9,52.9,17.8,53.1,17.7,53.3z"/>
	<path fill="#287AB9" d="M27.3,129.2c-0.2-0.2-0.3-0.4-0.5-0.6C27,128.8,27.2,129,27.3,129.2z"/>
	<path fill="#287AB9" d="M31.5,133.9L31.5,133.9c0,0-0.1-0.1-0.1-0.1C31.4,133.8,31.4,133.8,31.5,133.9z"/>
	<path fill="#287AB9" d="M29.4,131.7c-0.2-0.2-0.4-0.5-0.6-0.7C29,131.2,29.2,131.4,29.4,131.7z"/>
	<path fill="#287AB9" d="M25,126.2c-0.1-0.2-0.3-0.4-0.4-0.6C24.8,125.8,24.9,126,25,126.2z"/>
	<path fill="#FDB816" d="M64.6,13.6c0.2-0.1,0.5-0.1,0.7-0.2C65.1,13.5,64.9,13.6,64.6,13.6z"/>
	<path fill="#FDB816" d="M71.3,12.2c0.2,0,0.5-0.1,0.7-0.1C71.8,12.1,71.6,12.1,71.3,12.2z"/>
	<path fill="#FDB816" d="M75.1,11.6c0.1,0,0.3,0,0.4,0C75.4,11.6,75.3,11.6,75.1,11.6z"/>
	<path fill="#FDB816" d="M61.7,14.5c0.1,0,0.1,0,0.2-0.1C61.8,14.4,61.7,14.5,61.7,14.5z"/>
	<path fill="#FDB816" d="M68.3,12.7c0.1,0,0.2,0,0.3-0.1C68.5,12.7,68.4,12.7,68.3,12.7z"/>
	<path fill="#FDB816" d="M82.3,11.1c-1.6,0-3.3,0.1-4.9,0.3c1.6,0,3.3,0.1,4.9,0.3L82.3,11.1z"/>
	<path fill="#FDB816" d="M40,25.7c0.7-0.5,1.5-1.1,2.2-1.6C41.5,24.6,40.7,25.1,40,25.7z"/>
	<path fill="#FDB816" d="M82.3,37.8l0,2.2c-3.4-0.6-6.8-0.9-10.2-0.9c-8.6,0-17.3,1.9-25.5,5.9l-5.1-5.1c7.6-3.6,15.6-5.4,23.6-5.4
		c5.9,0,11.7,0.9,17.2,2.8l0-5.1l0,2.1c-5.1-1.4-10.4-2.2-15.9-2.2c-9.5,0-18.5,2.3-26.4,6.3l11.5,11.5l-2.9-2.9
		c6.9-3,14.4-4.6,22-4.6c1.5,0,3,0.1,4.5,0.2c-8.2,0.8-16.3,3.4-23.5,7.5l14.3,14.4c4.4-4,10.1-6.5,16.4-6.8L82.3,37.8z"/>
	<path fill="#FDB816" d="M33.2,31.5c0.9-0.9,1.8-1.7,2.7-2.5C35,29.8,34.1,30.6,33.2,31.5z"/>
	<path fill="#FDB816" d="M36.9,28.2c0.7-0.6,1.4-1.1,2.1-1.7C38.3,27,37.6,27.6,36.9,28.2z"/>
	<path fill="#FDB816" d="M43.2,23.4c1.1-0.7,2.1-1.4,3.2-2.1C45.3,22,44.2,22.7,43.2,23.4z"/>
	<path fill="#FDB816" d="M64.5,25.2c6.2,0,12.2,1,17.8,3l0-2.3c-5.7-1.8-11.6-2.7-17.4-2.7c-11,0-21.9,3.1-31.2,9l-0.3-0.3l3.1,3.1
		l-1.2-1.2C43.7,28.3,53.7,25.2,64.5,25.2z"/>
	<path fill="#FDB816" d="M82.3,18.4L82.3,18.4L82.3,18.4l0-2l0,0v0c-4.7-1.2-9.5-1.8-14.4-1.8c-2.8,0-5.6,0.2-8.4,0.6
		c-4.6,1.6-9,3.7-13.1,6.1c7-3.1,14.5-4.7,22.2-4.7C73.2,16.7,77.8,17.3,82.3,18.4z"/>
	<path fill="#007457" d="M33.4,135.4l-0.2,0.2l0,0c0,0,0,0,0,0c0.5,0.5,1,0.9,1.5,1.4c0,0,0-0.1-0.1-0.1
		C34.2,136.4,33.8,135.9,33.4,135.4C33.4,135.4,33.4,135.4,33.4,135.4z"/>
	<path fill="#F79C25" d="M82.3,16.4L82.3,16.4l0-4.7l0,0c-1.6-0.2-3.3-0.3-4.9-0.3c-0.1,0-0.1,0-0.2,0c-0.6,0-1.1,0.1-1.7,0.2
		c-0.1,0-0.3,0-0.4,0c-1,0.1-2,0.3-3,0.4c-0.2,0-0.5,0.1-0.7,0.1c-0.9,0.2-1.8,0.3-2.7,0.5c-0.1,0-0.2,0-0.3,0.1c-1,0.2-2,0.5-3,0.7
		c-0.2,0.1-0.5,0.1-0.7,0.2c-0.9,0.2-1.8,0.5-2.7,0.8c-0.1,0-0.1,0-0.2,0.1c-0.7,0.2-1.5,0.5-2.2,0.7c0,0,0.1,0,0.1,0
		c2.8-0.4,5.6-0.6,8.4-0.6C72.8,14.6,77.6,15.2,82.3,16.4z"/>
	<path fill="#F79C25" d="M64.9,23.1c5.8,0,11.7,0.9,17.4,2.7h0l0-7.3l0,0c-4.5-1.2-9.1-1.7-13.7-1.7c-7.6,0-15.2,1.6-22.2,4.7
		c0,0,0,0,0,0c0,0,0,0,0,0c-1.1,0.7-2.2,1.4-3.2,2.1c-0.3,0.2-0.6,0.4-1,0.7c-0.7,0.5-1.5,1-2.2,1.6c-0.4,0.3-0.7,0.5-1.1,0.8
		c-0.7,0.5-1.4,1.1-2.1,1.7c-0.3,0.3-0.6,0.5-0.9,0.8c-0.9,0.8-1.8,1.6-2.7,2.5c0,0-0.1,0-0.1,0.1l0.2,0.2l0.3,0.3
		C43.1,26.2,53.9,23.1,64.9,23.1z"/>
	<path fill="#F79C25" d="M82.3,34.3l0-2.1l0-4.1l0,0c-5.6-1.9-11.6-3-17.8-3c-10.8,0-20.8,3.1-29.2,8.5l1.2,1.2l3.5,3.5l0,0
		c7.9-4,16.9-6.3,26.4-6.3C71.9,32.1,77.2,32.9,82.3,34.3z"/>
	<path fill="#F79C25" d="M41.5,39.9l5.1,5.1c8.2-4,16.9-5.9,25.5-5.9c3.4,0,6.9,0.3,10.2,0.9l0-2.2l0-0.5l0,0
		c-5.5-1.8-11.3-2.8-17.2-2.8C57.1,34.5,49.1,36.3,41.5,39.9z"/>
	<path fill="#F79C25" d="M70.5,42.3c-7.6,0-15.1,1.6-22,4.6l2.9,2.9l0.1,0.1l0,0c7.2-4.1,15.2-6.7,23.5-7.5
		C73.5,42.4,72,42.3,70.5,42.3z"/>
	<path fill="#007457" d="M54.2,114.6L54.2,114.6l-0.8,0.7l0,0c6.6,10.7,16.7,19,28.8,23.1v0v-6.2C71.3,129.2,61.6,123,54.2,114.6z"
		/>
	<path fill="#007457" d="M82.3,129.3L82.3,129.3l0-2.7h0c-4.9-0.9-9.6-2.3-14.1-4.3C72.6,125.3,77.3,127.7,82.3,129.3z"/>
	<path fill="#007457" d="M39.4,129.4L39.4,129.4l-4.5,4.4l0,0c4.3,5.8,9.7,10.7,15.9,14.4c0.1,0,0.1,0.1,0.2,0.1
		c0.2,0.1,0.5,0.2,0.7,0.3c0.3,0.2,0.6,0.3,1,0.5c0.6,0.3,1.3,0.6,2,0.9c0.3,0.1,0.6,0.3,0.9,0.4c0.9,0.4,1.8,0.7,2.6,1
		c0.1,0,0.2,0.1,0.2,0.1c1,0.4,1.9,0.7,2.9,1c0.3,0.1,0.6,0.2,0.9,0.3c0.7,0.2,1.4,0.4,2.1,0.6c0.4,0.1,0.7,0.2,1.1,0.3
		c0.7,0.2,1.4,0.3,2.1,0.5c0.3,0.1,0.7,0.2,1,0.2c0.9,0.2,1.8,0.4,2.7,0.5c0.1,0,0.3,0.1,0.4,0.1c0,0,0.1,0,0.1,0c0,0,0,0,0,0
		C58.2,150.7,46.7,141.5,39.4,129.4z"/>
	<path fill="#007457" d="M46,122.8L46,122.8l-5.1,5.1c0,0,0,0,0,0c9.1,15.7,24.7,25.1,41.4,27h0v-4.7l0,0
		C67.5,146.5,54.2,137,46,122.8z"/>
	<path fill="#007457" d="M51.2,117.6L51.2,117.6l-3.4,3.4l0,0c4.7,8.7,11.7,16.3,20.9,21.6c4.4,2.5,8.9,4.4,13.6,5.6l0,0v-7.3l0,0
		c-4-1.3-8-3-11.8-5.2C62.5,131,56,124.8,51.2,117.6z"/>
	<path fill="#1E5C8B" d="M37.7,39.6L37.7,39.6L33.1,35l0,0c-4.1,2.9-7.8,6.3-11,10.2c0,0-0.1,0.1-0.1,0.1c-0.2,0.3-0.4,0.6-0.6,1
		c-0.2,0.3-0.4,0.6-0.6,0.9c-0.4,0.7-0.8,1.4-1.2,2.1c-0.1,0.2-0.3,0.5-0.4,0.7c-0.5,0.9-1,1.9-1.4,2.8c-0.1,0.2-0.2,0.4-0.2,0.5
		c-0.4,0.8-0.7,1.6-1,2.4c-0.1,0.3-0.3,0.6-0.4,1c-0.3,0.7-0.5,1.4-0.8,2c-0.1,0.3-0.3,0.7-0.4,1.1c-0.2,0.7-0.5,1.4-0.7,2.1
		c-0.1,0.3-0.2,0.6-0.3,0.9c-0.3,1-0.6,2-0.8,3c0,0,0,0,0,0.1c0,0,0,0,0,0c0,0,0,0,0,0C18.5,54.8,27.1,45.6,37.7,39.6z"/>
	<path fill="#1E5C8B" d="M42.9,46.9c0.5-0.3,0.9-0.5,1.4-0.8l-3.2-3.2l-1.8-1.8h0c-0.5,0.3-1,0.5-1.4,0.8
		c-14.6,8.4-23.9,22.6-26.6,38c0,0,0,0,0,0c0,0,0,0,0,0c-0.1,1.2-0.1,2.3-0.1,3.5c0,0,0,0.1,0,0.1v0c0,0,0,0,0,0
		c0,1.1,0,2.2,0.1,3.3c0,0.3,0,0.6,0,0.9c0,0.9,0.1,1.8,0.2,2.6c0,0.2,0,0.4,0.1,0.6c0.1,1.1,0.2,2.1,0.4,3.1c0,0.2,0.1,0.5,0.1,0.7
		c0.1,0.8,0.3,1.7,0.4,2.5c0.1,0.3,0.1,0.5,0.2,0.8c0.2,1,0.4,2,0.7,3.1c0,0.1,0.1,0.2,0.1,0.3c0.2,0.7,0.4,1.4,0.5,2
		c0,0,0-0.1,0-0.1C11.7,81.2,22.3,58.8,42.9,46.9z"/>
	<path fill="#1E5C8B" d="M30,71.5c4.9-8.5,11.7-15.3,19.4-20.2l-2.6-2.6L46.1,48l0,0C36.8,52.6,28.6,60,23,69.7
		c-8.9,15.4-9.4,33.2-3.1,48.4c0,0,0,0.1,0,0.1c0.4,0.7,0.8,1.4,1.2,2.2c0,0,0.1,0.1,0.1,0.1c0.5,0.8,1,1.6,1.5,2.5
		c0.2,0.2,0.3,0.5,0.5,0.7c0.4,0.7,0.9,1.3,1.4,2c0.1,0.2,0.3,0.4,0.4,0.6c0.6,0.8,1.2,1.6,1.8,2.4c0.2,0.2,0.3,0.4,0.5,0.6
		c0.5,0.6,1,1.2,1.5,1.8c0.2,0.2,0.4,0.5,0.6,0.7c0.6,0.7,1.3,1.4,1.9,2.1c0,0,0.1,0.1,0.1,0.1l0,0l0.6-0.6l0,0
		C20,115.4,18.5,91.4,30,71.5z"/>
	<path fill="#1E5C8B" d="M52.3,54.1l-0.5-0.5C35.3,63,24.2,80.8,24.2,101.2c0,11.4,3.5,21.9,9.4,30.6l0.3-0.3l4.3-4.3l0,0
		c-4.5-8.3-7.1-17.8-7.1-27.9C31.1,81.1,39.3,64.9,52.3,54.1z"/>
	<path fill="#1E5C8B" d="M43.3,69.2c-11.3,16.2-13.3,38-3.6,56.5l3.1-3.1l1.9-1.9l0,0C36.1,104.1,36.1,85.1,43.3,69.2z"/>
	<path fill="#1E5C8B" d="M46.6,118.7C46.6,118.7,46.6,118.7,46.6,118.7l3.2-3.2c0,0,0,0,0,0c-4.6-7.6-7.5-16.1-8.3-25
		C40.7,100.3,42.5,110,46.6,118.7z"/>
</g>
</svg>
